<svg xmlns="http://www.w3.org/2000/svg" xmlns:xlink="http://www.w3.org/1999/xlink" width="500" zoomAndPan="magnify" viewBox="0 0 375 374.999991" height="500" preserveAspectRatio="xMidYMid meet" version="1.0"><defs><clipPath id="9ebab151e3"><path d="M 120.402344 193.78125 L 288.757812 193.78125 L 288.757812 354.878906 L 120.402344 354.878906 Z M 120.402344 193.78125 " clip-rule="nonzero"/></clipPath><clipPath id="e6f763ddb5"><path d="M 126.375 277.488281 L 282.785156 277.488281 L 282.785156 354.878906 L 126.375 354.878906 Z M 126.375 277.488281 " clip-rule="nonzero"/></clipPath><clipPath id="0626b71fef"><path d="M 293.105469 219 L 374.898438 219 L 374.898438 314.449219 L 293.105469 314.449219 Z M 293.105469 219 " clip-rule="nonzero"/></clipPath><clipPath id="2a976b4eed"><path d="M 293.105469 221 L 374.898438 221 L 374.898438 314.449219 L 293.105469 314.449219 Z M 293.105469 221 " clip-rule="nonzero"/></clipPath><clipPath id="a77568fd2c"><path d="M 89 20.390625 L 100 20.390625 L 100 31 L 89 31 Z M 89 20.390625 " clip-rule="nonzero"/></clipPath><clipPath id="a0f3815829"><path d="M 310 20.390625 L 321 20.390625 L 321 31 L 310 31 Z M 310 20.390625 " clip-rule="nonzero"/></clipPath></defs><path fill="#094f94" d="M 240.054688 261.75 L 240.054688 46.660156 C 240.054688 32.519531 228.605469 21.058594 214.476562 21.058594 L 195.824219 21.058594 C 181.699219 21.058594 170.246094 32.519531 170.246094 46.660156 L 170.246094 261.75 C 170.246094 275.886719 181.699219 287.347656 195.824219 287.347656 L 214.476562 287.347656 C 228.605469 287.347656 240.054688 275.886719 240.054688 261.75 " fill-opacity="1" fill-rule="nonzero"/><path fill="#094f94" d="M 305.257812 261.574219 L 100.726562 261.574219 L 100.726562 229.597656 L 305.257812 229.597656 L 305.257812 261.574219 " fill-opacity="1" fill-rule="nonzero"/><g clip-path="url(#9ebab151e3)"><path fill="#e0ecf8" d="M 287.839844 193.925781 L 121.511719 193.925781 C 121.511719 193.925781 114.925781 284.886719 145.878906 321.800781 C 174.535156 355.96875 200.914062 355.117188 204.675781 354.800781 C 208.4375 355.117188 234.816406 355.96875 263.472656 321.800781 C 294.425781 284.886719 287.839844 193.925781 287.839844 193.925781 " fill-opacity="1" fill-rule="nonzero"/></g><g clip-path="url(#e6f763ddb5)"><path fill="#c7dae9" d="M 265.242188 312.566406 C 235.722656 346.734375 208.550781 345.882812 204.675781 345.570312 C 200.800781 345.882812 173.625 346.734375 144.109375 312.566406 C 136.242188 303.457031 130.734375 291.0625 126.894531 277.554688 C 130.609375 294.570312 136.527344 310.648438 145.878906 321.800781 C 174.535156 355.96875 200.914062 355.117188 204.675781 354.800781 C 208.4375 355.117188 234.816406 355.96875 263.472656 321.800781 C 272.820312 310.648438 278.742188 294.570312 282.457031 277.554688 C 278.613281 291.0625 273.105469 303.457031 265.242188 312.566406 " fill-opacity="1" fill-rule="nonzero"/></g><path fill="#c7dae9" d="M 121.171875 200.675781 C 133.179688 215.675781 150.832031 225.171875 170.53125 225.171875 L 239.769531 225.171875 C 258.96875 225.171875 276.238281 216.164062 288.21875 201.820312 C 288.046875 196.84375 287.839844 193.925781 287.839844 193.925781 L 121.511719 193.925781 C 121.511719 193.925781 121.335938 196.402344 121.171875 200.675781 " fill-opacity="1" fill-rule="nonzero"/><path fill="#c7dae9" d="M 141.988281 316.589844 C 148.730469 306.816406 153.113281 292.464844 153.445312 276.382812 L 256.152344 276.382812 C 256.484375 292.363281 260.816406 306.640625 267.484375 316.40625 C 268.25 315.257812 268.984375 314.066406 269.695312 312.847656 C 263.796875 303.410156 260.074219 289.675781 260.074219 274.394531 C 260.074219 246.222656 272.71875 223.277344 288.332031 222.945312 C 288.359375 221.589844 288.382812 220.273438 288.398438 218.984375 C 270.960938 219.234375 256.757812 242.933594 256.152344 272.425781 L 153.445312 272.425781 C 152.835938 242.792969 138.5 219 120.953125 218.976562 C 120.96875 220.261719 120.992188 221.582031 121.019531 222.933594 C 136.746094 223.027344 149.527344 246.074219 149.527344 274.394531 C 149.527344 289.785156 145.746094 303.609375 139.777344 313.046875 C 140.488281 314.261719 141.222656 315.445312 141.988281 316.589844 " fill-opacity="1" fill-rule="nonzero"/><path fill="#c7dae9" d="M 189.148438 274.402344 C 189.148438 265.558594 196.3125 258.386719 205.152344 258.386719 C 213.988281 258.386719 221.152344 265.558594 221.152344 274.402344 C 221.152344 283.25 213.988281 290.417969 205.152344 290.417969 C 196.3125 290.417969 189.148438 283.25 189.148438 274.402344 " fill-opacity="1" fill-rule="nonzero"/><path fill="#094f94" d="M 194.074219 274.402344 C 194.074219 268.28125 199.035156 263.320312 205.152344 263.320312 C 211.265625 263.320312 216.226562 268.28125 216.226562 274.402344 C 216.226562 280.527344 211.265625 285.488281 205.152344 285.488281 C 199.035156 285.488281 194.074219 280.527344 194.074219 274.402344 " fill-opacity="1" fill-rule="nonzero"/><g clip-path="url(#0626b71fef)"><path fill="#e0ecf8" d="M 293.484375 230.378906 L 293.996094 258.351562 C 294.136719 266.105469 298.148438 273.273438 304.679688 277.445312 L 360.179688 312.886719 C 367.097656 317.300781 376.039062 311.523438 374.777344 303.410156 C 371.417969 281.765625 358.140625 246.308594 309.660156 220.550781 C 302.25 216.613281 293.332031 221.984375 293.484375 230.378906 " fill-opacity="1" fill-rule="nonzero"/></g><g clip-path="url(#2a976b4eed)"><path fill="#c7dae9" d="M 364.910156 303.417969 L 309.410156 267.972656 C 302.878906 263.804688 298.867188 256.636719 298.726562 248.878906 L 298.222656 221.199219 C 295.371094 223.152344 293.414062 226.421875 293.484375 230.378906 L 293.996094 258.351562 C 294.136719 266.105469 298.148438 273.273438 304.679688 277.445312 L 360.179688 312.886719 C 367.027344 317.257812 375.847656 311.632812 374.796875 303.644531 C 371.910156 305.292969 368.1875 305.507812 364.910156 303.417969 " fill-opacity="1" fill-rule="nonzero"/></g><path fill="#c7dae9" d="M 99.550781 100.332031 L 93.417969 25.171875 L 95.457031 24.839844 L 111.824219 100.332031 L 99.550781 100.332031 " fill-opacity="1" fill-rule="nonzero"/><g clip-path="url(#a77568fd2c)"><path fill="#c7dae9" d="M 89.664062 25.335938 C 89.664062 22.601562 91.878906 20.386719 94.609375 20.386719 C 97.339844 20.386719 99.550781 22.601562 99.550781 25.335938 C 99.550781 28.066406 97.339844 30.28125 94.609375 30.28125 C 91.878906 30.28125 89.664062 28.066406 89.664062 25.335938 " fill-opacity="1" fill-rule="nonzero"/></g><path fill="#c7dae9" d="M 310.75 100.332031 L 316.886719 25.171875 L 314.84375 24.839844 L 298.476562 100.332031 L 310.75 100.332031 " fill-opacity="1" fill-rule="nonzero"/><g clip-path="url(#a0f3815829)"><path fill="#c7dae9" d="M 320.636719 25.335938 C 320.636719 22.601562 318.421875 20.386719 315.695312 20.386719 C 312.964844 20.386719 310.75 22.601562 310.75 25.335938 C 310.75 28.066406 312.964844 30.28125 315.695312 30.28125 C 318.421875 30.28125 320.636719 28.066406 320.636719 25.335938 " fill-opacity="1" fill-rule="nonzero"/></g><path fill="#094f94" d="M 312.605469 96.046875 L 97.695312 96.046875 C 83.570312 96.046875 72.117188 107.507812 72.117188 121.644531 L 72.117188 140.3125 C 72.117188 154.453125 83.570312 165.914062 97.695312 165.914062 L 312.605469 165.914062 C 326.734375 165.914062 338.183594 154.453125 338.183594 140.3125 L 338.183594 121.644531 C 338.183594 107.507812 326.734375 96.046875 312.605469 96.046875 " fill-opacity="1" fill-rule="nonzero"/><path fill="#e0ecf8" d="M 242.84375 45.621094 L 167.457031 45.621094 C 128.078125 45.621094 96.15625 77.570312 96.15625 116.984375 L 96.15625 144.976562 C 96.15625 184.386719 128.078125 216.335938 167.457031 216.335938 L 242.84375 216.335938 C 282.222656 216.335938 314.148438 184.386719 314.148438 144.976562 L 314.148438 116.984375 C 314.148438 77.570312 282.222656 45.621094 242.84375 45.621094 " fill-opacity="1" fill-rule="nonzero"/><path fill="#c7dae9" d="M 287.46875 109.566406 L 286.847656 106.519531 C 284.839844 96.679688 278.734375 88.109375 270.09375 83.007812 C 261.457031 77.90625 251.007812 76.691406 241.4375 79.6875 L 240.351562 80.027344 C 216.992188 87.332031 192.3125 87.277344 168.988281 79.875 C 159.394531 76.828125 148.921875 78.003906 140.246094 83.105469 C 131.570312 88.207031 125.441406 96.792969 123.429688 106.65625 L 122.835938 109.566406 C 118.832031 129.207031 123.800781 149.378906 136.464844 164.90625 C 149.132812 180.433594 167.890625 189.335938 187.917969 189.335938 L 222.386719 189.335938 C 242.414062 189.335938 261.167969 180.433594 273.835938 164.90625 C 286.503906 149.378906 291.472656 129.207031 287.46875 109.566406 " fill-opacity="1" fill-rule="nonzero"/><path fill="#2e3033" d="M 280.976562 110.890625 L 280.355469 107.84375 C 276.929688 91.054688 259.753906 80.902344 243.410156 86.015625 L 242.324219 86.355469 C 217.789062 94.027344 191.488281 93.972656 166.984375 86.191406 C 150.613281 80.992188 133.351562 91.140625 129.917969 107.984375 L 129.324219 110.890625 C 121.761719 147.992188 150.085938 182.710938 187.917969 182.710938 L 222.382812 182.710938 C 260.21875 182.710938 288.539062 147.992188 280.976562 110.890625 " fill-opacity="1" fill-rule="nonzero"/><path fill="#ffffff" d="M 115.09375 84.6875 C 115.09375 84.6875 136.546875 51.054688 151.683594 56.109375 C 166.824219 61.160156 132.496094 73.332031 115.09375 84.6875 " fill-opacity="1" fill-rule="nonzero"/><path fill="#ffffff" d="M 171.5 55.589844 C 171.5 57.996094 169.546875 59.949219 167.144531 59.949219 C 164.738281 59.949219 162.789062 57.996094 162.789062 55.589844 C 162.789062 53.183594 164.738281 51.234375 167.144531 51.234375 C 169.546875 51.234375 171.5 53.183594 171.5 55.589844 " fill-opacity="1" fill-rule="nonzero"/><path fill="#ffffff" d="M 364.117188 285.898438 C 364.117188 285.898438 345.671875 243.988281 339.304688 250.316406 C 332.9375 256.640625 364.117188 285.898438 364.117188 285.898438 " fill-opacity="1" fill-rule="nonzero"/><path fill="#ffde1a" d="M 205.152344 161.34375 C 197.796875 161.34375 190.445312 159.34375 183.144531 155.339844 C 180.738281 154.019531 179.859375 151.003906 181.175781 148.597656 C 182.492188 146.191406 185.503906 145.308594 187.910156 146.628906 C 199.511719 152.988281 210.789062 152.988281 222.390625 146.628906 C 224.792969 145.308594 227.8125 146.191406 229.125 148.597656 C 230.441406 151.003906 229.5625 154.019531 227.160156 155.339844 C 219.855469 159.34375 212.503906 161.34375 205.152344 161.34375 " fill-opacity="1" fill-rule="nonzero"/><path fill="#e0ecf8" d="M 113.027344 259.253906 L 115.035156 231.347656 C 115.589844 223.613281 112.242188 216.113281 106.109375 211.371094 L 54.015625 171.078125 C 47.523438 166.058594 38.101562 171.011719 38.625 179.203125 C 40.027344 201.0625 50.070312 237.570312 96.039062 267.585938 C 103.0625 272.175781 112.425781 267.625 113.027344 259.253906 " fill-opacity="1" fill-rule="nonzero"/><path fill="#c7dae9" d="M 115.035156 231.347656 C 115.386719 226.449219 114.164062 221.648438 111.667969 217.578125 L 110.214844 237.761719 C 109.617188 246.136719 100.25 250.683594 93.226562 246.09375 C 58.644531 223.515625 44.398438 197.261719 38.863281 176.335938 C 38.652344 177.234375 38.5625 178.195312 38.625 179.203125 C 40.027344 201.0625 50.070312 237.570312 96.039062 267.585938 C 103.0625 272.175781 112.425781 267.625 113.027344 259.253906 L 115.035156 231.347656 " fill-opacity="1" fill-rule="nonzero"/><path fill="#ffde1a" d="M 166.667969 122.988281 C 166.667969 118.175781 170.566406 114.273438 175.375 114.273438 C 180.1875 114.273438 184.085938 118.175781 184.085938 122.988281 C 184.085938 127.804688 180.1875 131.707031 175.375 131.707031 C 170.566406 131.707031 166.667969 127.804688 166.667969 122.988281 " fill-opacity="1" fill-rule="nonzero"/><path fill="#ffde1a" d="M 225.265625 122.988281 C 225.265625 118.175781 229.164062 114.273438 233.972656 114.273438 C 238.78125 114.273438 242.679688 118.175781 242.679688 122.988281 C 242.679688 127.804688 238.78125 131.707031 233.972656 131.707031 C 229.164062 131.707031 225.265625 127.804688 225.265625 122.988281 " fill-opacity="1" fill-rule="nonzero"/><path fill="#0083db" d="M 82.082031 200.050781 L 61.621094 122.15625 C 60.566406 118.140625 56.457031 115.738281 52.441406 116.796875 L 6.527344 128.878906 C 2.511719 129.933594 0.113281 134.046875 1.167969 138.066406 L 21.632812 215.960938 C 22.6875 219.980469 26.796875 222.378906 30.8125 221.324219 L 76.726562 209.242188 C 80.742188 208.183594 83.140625 204.070312 82.082031 200.050781 " fill-opacity="1" fill-rule="nonzero"/><path fill="#094f94" d="M 73.496094 196.109375 L 56.082031 129.820312 C 55.324219 126.949219 52.386719 125.230469 49.515625 125.984375 L 13.589844 135.4375 C 10.71875 136.195312 9.003906 139.136719 9.757812 142.007812 L 27.171875 208.300781 C 27.929688 211.171875 30.867188 212.890625 33.738281 212.132812 L 69.664062 202.679688 C 72.535156 201.925781 74.25 198.984375 73.496094 196.109375 " fill-opacity="1" fill-rule="nonzero"/><path fill="#e0ecf8" d="M 50.402344 173.515625 L 23.8125 180.515625 L 22.550781 175.71875 L 49.144531 168.722656 L 50.402344 173.515625 " fill-opacity="1" fill-rule="nonzero"/><path fill="#e0ecf8" d="M 41.246094 166.867188 L 21.585938 172.042969 L 20.324219 167.25 L 39.988281 162.074219 L 41.246094 166.867188 " fill-opacity="1" fill-rule="nonzero"/><path fill="#e0ecf8" d="M 35.089844 159.429688 L 19.359375 163.570312 L 18.101562 158.777344 L 33.828125 154.636719 L 35.089844 159.429688 " fill-opacity="1" fill-rule="nonzero"/><path fill="#e0ecf8" d="M 54.535156 138.917969 L 36.304688 143.714844 L 35.046875 138.921875 L 53.273438 134.125 L 54.535156 138.917969 " fill-opacity="1" fill-rule="nonzero"/><path fill="#e0ecf8" d="M 66.550781 184.664062 L 48.324219 189.460938 L 47.0625 184.664062 L 65.292969 179.867188 L 66.550781 184.664062 " fill-opacity="1" fill-rule="nonzero"/><path fill="#e0ecf8" d="M 68.9375 193.742188 L 43.277344 200.496094 L 42.015625 195.699219 L 67.675781 188.949219 L 68.9375 193.742188 " fill-opacity="1" fill-rule="nonzero"/></svg>