<svg xmlns="http://www.w3.org/2000/svg" xmlns:xlink="http://www.w3.org/1999/xlink" width="500" zoomAndPan="magnify" viewBox="0 0 375 374.999991" height="500" preserveAspectRatio="xMidYMid meet" version="1.0"><defs><clipPath id="868fa8c891"><path d="M 0 20.539062 L 241.6875 20.539062 L 241.6875 356.25 L 0 356.25 Z M 0 20.539062 " clip-rule="nonzero"/></clipPath><clipPath id="78901b5729"><path d="M 67.171875 305.890625 L 263 305.890625 L 263 356.246094 L 67.171875 356.246094 Z M 67.171875 305.890625 " clip-rule="nonzero"/></clipPath><clipPath id="65c44c6ea2"><path d="M 13 18.75 L 204 18.75 L 204 42 L 13 42 Z M 13 18.75 " clip-rule="nonzero"/></clipPath><clipPath id="58b0a8e8d5"><path d="M 339.785156 326.238281 L 374.640625 326.238281 L 374.640625 356.246094 L 339.785156 356.246094 Z M 339.785156 326.238281 " clip-rule="nonzero"/></clipPath><clipPath id="6c436fd6ad"><path d="M 340 337 L 374.703125 337 L 374.703125 354 L 340 354 Z M 340 337 " clip-rule="nonzero"/></clipPath><clipPath id="98cf1a0f15"><path d="M 279.453125 327.582031 L 316.992188 327.582031 L 316.992188 356.246094 L 279.453125 356.246094 Z M 279.453125 327.582031 " clip-rule="nonzero"/></clipPath></defs><g clip-path="url(#868fa8c891)"><path fill="#c9c9db" d="M 241.410156 342.859375 L 181.460938 37.003906 C 180.429688 31.734375 175.816406 27.9375 170.453125 27.9375 L 18.050781 27.9375 L 18.917969 20.554688 L 4.625 29.4375 L 4.628906 29.441406 C 0.648438 31.75 -1.730469 36.414062 -0.769531 41.324219 L 59.179688 347.179688 C 60.210938 352.449219 64.824219 356.25 70.1875 356.25 L 230.398438 356.25 C 237.460938 356.25 242.765625 349.796875 241.410156 342.859375 " fill-opacity="1" fill-rule="nonzero"/></g><path fill="#4061e3" d="M 255.589844 305.921875 L 67.390625 305.921875 L 15.566406 41.523438 L 203.765625 41.523438 L 255.589844 305.921875 " fill-opacity="1" fill-rule="nonzero"/><path fill="#180c45" d="M 15.566406 41.523438 L 19.542969 61.792969 L 207.742188 61.792969 L 203.769531 41.523438 L 15.566406 41.523438 " fill-opacity="1" fill-rule="nonzero"/><g clip-path="url(#78901b5729)"><path fill="#c9c9db" d="M 251.441406 356.25 L 86.746094 356.25 C 81.230469 356.25 76.488281 352.339844 75.425781 346.929688 L 67.390625 305.921875 L 255.589844 305.921875 L 262.757812 342.484375 C 264.152344 349.613281 258.699219 356.25 251.441406 356.25 " fill-opacity="1" fill-rule="nonzero"/></g><path fill="#180c45" d="M 185.9375 326.324219 C 184.632812 322.503906 181.496094 319.425781 177.628906 318.25 C 175.75 317.675781 173.835938 317.753906 171.902344 317.753906 C 169.363281 317.753906 166.828125 317.753906 164.289062 317.753906 C 162.539062 317.753906 160.789062 317.753906 159.039062 317.753906 C 155.832031 317.757812 152.792969 319.183594 151 321.898438 C 148.90625 325.074219 149.125 329.210938 150.84375 332.492188 C 152.703125 336.039062 156.296875 338.613281 160.273438 339.132812 C 161.105469 339.238281 161.941406 339.222656 162.777344 339.222656 C 163.660156 339.222656 164.539062 339.222656 165.421875 339.222656 C 167.394531 339.222656 169.371094 339.222656 171.347656 339.222656 C 173.121094 339.222656 174.894531 339.222656 176.664062 339.222656 C 178.492188 339.222656 180.269531 338.902344 181.878906 338 C 185.015625 336.242188 186.746094 332.703125 186.5 329.152344 C 186.429688 328.1875 186.242188 327.238281 185.9375 326.324219 C 185.636719 325.410156 184.191406 325.804688 184.496094 326.722656 C 185.527344 329.847656 185.027344 333.339844 182.597656 335.632812 C 181.460938 336.703125 180.003906 337.367188 178.449219 337.625 C 177.683594 337.75 176.90625 337.722656 176.132812 337.722656 C 175.316406 337.722656 174.503906 337.722656 173.6875 337.722656 C 170.039062 337.722656 166.386719 337.722656 162.734375 337.722656 C 161.949219 337.722656 161.160156 337.75 160.375 337.648438 C 159.503906 337.53125 158.632812 337.285156 157.816406 336.949219 C 156.152344 336.269531 154.671875 335.144531 153.507812 333.78125 C 151.28125 331.171875 150.292969 327.445312 151.5 324.191406 C 152.601562 321.21875 155.511719 319.339844 158.683594 319.257812 C 160.066406 319.21875 161.457031 319.253906 162.839844 319.253906 C 165.324219 319.253906 167.808594 319.253906 170.289062 319.253906 C 171.644531 319.253906 172.996094 319.246094 174.351562 319.253906 C 177.949219 319.269531 181.371094 321.304688 183.3125 324.300781 C 183.804688 325.0625 184.203125 325.867188 184.496094 326.722656 C 184.625 327.105469 185.007812 327.355469 185.414062 327.242188 C 185.789062 327.140625 186.070312 326.707031 185.9375 326.324219 " fill-opacity="1" fill-rule="nonzero"/><path fill="#180c45" d="M 67.394531 306.851562 C 69.285156 316.242188 71.175781 325.632812 73.066406 335.023438 C 73.597656 337.667969 74.128906 340.308594 74.660156 342.949219 C 74.742188 343.34375 75.210938 343.574219 75.582031 343.472656 C 75.996094 343.359375 76.183594 342.949219 76.105469 342.550781 C 74.214844 333.160156 72.324219 323.769531 70.433594 314.378906 C 69.902344 311.738281 69.367188 309.09375 68.835938 306.453125 C 68.757812 306.054688 68.285156 305.832031 67.917969 305.933594 C 67.503906 306.046875 67.3125 306.453125 67.394531 306.851562 " fill-opacity="1" fill-rule="nonzero"/><path fill="#180c45" d="M 74.660156 342.949219 C 75.390625 347.558594 77.503906 352.34375 81.839844 354.59375 C 83.175781 355.285156 84.609375 355.683594 86.097656 355.882812 C 86.496094 355.933594 86.84375 355.5 86.84375 355.132812 C 86.84375 354.683594 86.5 354.4375 86.097656 354.382812 C 83.890625 354.085938 81.804688 353.132812 80.210938 351.582031 C 78.714844 350.121094 77.679688 348.242188 77.007812 346.269531 C 76.59375 345.058594 76.304688 343.8125 76.105469 342.550781 C 76.042969 342.148438 75.542969 341.929688 75.183594 342.027344 C 74.757812 342.144531 74.597656 342.546875 74.660156 342.949219 " fill-opacity="1" fill-rule="nonzero"/><g clip-path="url(#65c44c6ea2)"><path fill="#c9c9db" d="M 203.765625 41.523438 L 15.566406 41.523438 L 13.800781 32.515625 C 12.402344 25.386719 17.859375 18.75 25.117188 18.75 L 189.8125 18.75 C 195.324219 18.75 200.070312 22.65625 201.128906 28.074219 L 203.765625 41.523438 " fill-opacity="1" fill-rule="nonzero"/></g><path fill="#180c45" d="M 18.644531 21.050781 C 17.191406 21.855469 15.914062 22.964844 15.058594 24.402344 C 14.246094 25.769531 13.871094 27.332031 13.730469 28.910156 C 13.578125 30.617188 13.714844 32.339844 13.917969 34.035156 C 14.070312 35.308594 14.25 36.574219 14.5 37.835938 C 14.707031 38.878906 14.910156 39.921875 15.117188 40.96875 C 15.195312 41.363281 15.667969 41.589844 16.035156 41.492188 C 16.453125 41.375 16.636719 40.96875 16.558594 40.570312 C 16.183594 38.660156 15.777344 36.757812 15.515625 34.828125 C 15.296875 33.199219 15.128906 31.550781 15.171875 29.910156 C 15.207031 28.511719 15.421875 27.039062 16.007812 25.804688 C 16.730469 24.28125 17.914062 23.167969 19.398438 22.34375 C 20.242188 21.878906 19.488281 20.582031 18.644531 21.050781 " fill-opacity="1" fill-rule="nonzero"/><path fill="#ffffff" d="M 194 57.109375 L 181.839844 57.109375 C 180.605469 57.109375 179.234375 55.984375 179 54.773438 L 177.714844 48.21875 C 177.535156 47.296875 178.085938 46.628906 179.027344 46.628906 L 191.1875 46.628906 C 192.421875 46.628906 193.789062 47.753906 194.027344 48.96875 L 195.308594 55.519531 C 195.488281 56.445312 194.941406 57.109375 194 57.109375 " fill-opacity="1" fill-rule="nonzero"/><path fill="#ffffff" d="M 196.78125 54.53125 L 191.164062 54.53125 C 190.363281 54.53125 189.480469 53.804688 189.328125 53.019531 L 188.785156 50.238281 C 188.667969 49.640625 189.023438 49.207031 189.628906 49.207031 L 195.246094 49.207031 C 196.046875 49.207031 196.929688 49.9375 197.082031 50.722656 L 197.628906 53.5 C 197.746094 54.097656 197.390625 54.53125 196.78125 54.53125 " fill-opacity="1" fill-rule="nonzero"/><path fill="#ffffff" d="M 168.5625 47.574219 C 169.164062 50.574219 169.769531 53.566406 170.371094 56.5625 C 170.453125 56.960938 170.921875 57.1875 171.292969 57.085938 C 171.707031 56.972656 171.894531 56.5625 171.816406 56.164062 C 171.210938 53.167969 170.609375 50.171875 170.003906 47.179688 C 169.925781 46.78125 169.453125 46.554688 169.085938 46.65625 C 168.671875 46.769531 168.480469 47.179688 168.5625 47.574219 " fill-opacity="1" fill-rule="nonzero"/><path fill="#ffffff" d="M 164.675781 49.90625 C 165.121094 52.125 165.570312 54.34375 166.015625 56.5625 C 166.097656 56.960938 166.566406 57.1875 166.9375 57.085938 C 167.347656 56.972656 167.539062 56.5625 167.457031 56.164062 C 167.011719 53.945312 166.566406 51.726562 166.117188 49.507812 C 166.039062 49.109375 165.566406 48.882812 165.199219 48.984375 C 164.785156 49.097656 164.59375 49.507812 164.675781 49.90625 " fill-opacity="1" fill-rule="nonzero"/><path fill="#ffffff" d="M 160.792969 52.269531 C 161.082031 53.699219 161.371094 55.132812 161.660156 56.5625 C 161.734375 56.949219 162.214844 57.203125 162.578125 57.085938 C 162.988281 56.953125 163.183594 56.578125 163.101562 56.164062 C 162.8125 54.734375 162.523438 53.304688 162.238281 51.871094 C 162.160156 51.488281 161.683594 51.230469 161.316406 51.347656 C 160.910156 51.480469 160.710938 51.855469 160.792969 52.269531 " fill-opacity="1" fill-rule="nonzero"/><path fill="#180c45" d="M 190.640625 55.382812 L 183.222656 55.382812 C 182.167969 55.382812 181.003906 54.421875 180.800781 53.386719 L 180.082031 49.714844 C 179.925781 48.925781 180.394531 48.355469 181.199219 48.355469 L 188.617188 48.355469 C 189.671875 48.355469 190.835938 49.316406 191.039062 50.351562 L 191.757812 54.023438 C 191.914062 54.8125 191.445312 55.382812 190.640625 55.382812 " fill-opacity="1" fill-rule="nonzero"/><path fill="#180c45" d="M 113.117188 32.265625 C 113.597656 34.726562 111.988281 36.726562 109.527344 36.726562 C 107.066406 36.726562 104.683594 34.726562 104.203125 32.265625 C 103.726562 29.800781 105.335938 27.804688 107.796875 27.804688 C 110.257812 27.804688 112.640625 29.800781 113.117188 32.265625 " fill-opacity="1" fill-rule="nonzero"/><path fill="#ffffff" d="M 210.011719 294.734375 C 208.753906 294.734375 207.492188 294.734375 206.234375 294.734375 C 202.839844 294.734375 199.441406 294.734375 196.042969 294.734375 C 191.089844 294.734375 186.136719 294.734375 181.183594 294.734375 C 175.226562 294.734375 169.269531 294.734375 163.308594 294.734375 C 156.882812 294.734375 150.460938 294.734375 144.03125 294.734375 C 137.722656 294.734375 131.414062 294.734375 125.105469 294.734375 C 119.496094 294.734375 113.886719 294.734375 108.277344 294.734375 C 103.902344 294.734375 99.53125 294.734375 95.15625 294.734375 C 92.574219 294.734375 89.988281 294.734375 87.40625 294.734375 C 86.96875 294.734375 86.53125 294.738281 86.097656 294.734375 C 82.574219 294.695312 78.992188 291.183594 79.8125 287.511719 C 80.285156 285.386719 82.136719 284.355469 84.191406 284.351562 C 84.832031 284.351562 85.472656 284.351562 86.117188 284.351562 C 89.042969 284.351562 91.96875 284.351562 94.894531 284.351562 C 99.535156 284.351562 104.175781 284.351562 108.8125 284.351562 C 114.578125 284.351562 120.34375 284.351562 126.113281 284.351562 C 132.457031 284.351562 138.804688 284.351562 145.152344 284.351562 C 151.539062 284.351562 157.929688 284.351562 164.320312 284.351562 C 170.167969 284.351562 176.011719 284.351562 181.859375 284.351562 C 186.582031 284.351562 191.308594 284.351562 196.03125 284.351562 C 199.097656 284.351562 202.160156 284.351562 205.226562 284.351562 C 205.960938 284.351562 206.695312 284.351562 207.433594 284.351562 C 209.121094 284.351562 210.710938 284.851562 211.996094 286 C 213.5 287.339844 214.558594 289.445312 214.140625 291.492188 C 213.730469 293.503906 212.011719 294.703125 210.011719 294.734375 C 209.046875 294.75 209.046875 296.246094 210.011719 296.234375 C 212.117188 296.199219 214.140625 295.179688 215.105469 293.242188 C 216.09375 291.265625 215.804688 288.90625 214.734375 287.019531 C 213.3125 284.507812 210.605469 282.867188 207.71875 282.855469 C 205.945312 282.847656 204.175781 282.855469 202.402344 282.855469 C 198.558594 282.855469 194.710938 282.855469 190.867188 282.855469 C 185.535156 282.855469 180.203125 282.855469 174.867188 282.855469 C 168.636719 282.855469 162.40625 282.855469 156.175781 282.855469 C 149.613281 282.855469 143.054688 282.855469 136.492188 282.855469 C 130.234375 282.855469 123.976562 282.855469 117.71875 282.855469 C 112.335938 282.855469 106.949219 282.855469 101.5625 282.855469 C 97.640625 282.855469 93.714844 282.855469 89.789062 282.855469 C 87.914062 282.855469 86.039062 282.851562 84.164062 282.855469 C 81.910156 282.859375 79.738281 283.863281 78.757812 285.992188 C 76.792969 290.273438 80.402344 295.316406 84.738281 296.101562 C 86.304688 296.382812 88.007812 296.234375 89.589844 296.234375 C 92.980469 296.234375 96.371094 296.234375 99.765625 296.234375 C 104.804688 296.234375 109.847656 296.234375 114.890625 296.234375 C 120.957031 296.234375 127.027344 296.234375 133.09375 296.234375 C 139.613281 296.234375 146.132812 296.234375 152.652344 296.234375 C 159.03125 296.234375 165.414062 296.234375 171.792969 296.234375 C 177.464844 296.234375 183.132812 296.234375 188.804688 296.234375 C 193.136719 296.234375 197.46875 296.234375 201.800781 296.234375 C 204.222656 296.234375 206.648438 296.234375 209.070312 296.234375 C 209.382812 296.234375 209.695312 296.234375 210.011719 296.234375 C 210.972656 296.234375 210.976562 294.734375 210.011719 294.734375 " fill-opacity="1" fill-rule="nonzero"/><path fill="#ffffff" d="M 62.160156 275.648438 C 76.242188 275.648438 90.328125 275.648438 104.414062 275.648438 C 115.679688 275.648438 126.945312 275.648438 138.210938 275.648438 C 148.421875 275.648438 158.636719 275.648438 168.851562 275.648438 C 179.890625 275.648438 190.933594 275.648438 201.976562 275.648438 C 215.617188 275.648438 229.253906 275.648438 242.890625 275.648438 C 244.847656 275.648438 246.800781 275.648438 248.753906 275.648438 C 249.71875 275.648438 249.71875 274.152344 248.753906 274.152344 C 234.667969 274.152344 220.585938 274.152344 206.5 274.152344 C 195.234375 274.152344 183.96875 274.152344 172.703125 274.152344 C 162.492188 274.152344 152.277344 274.152344 142.0625 274.152344 C 131.023438 274.152344 119.980469 274.152344 108.9375 274.152344 C 95.296875 274.152344 81.660156 274.152344 68.019531 274.152344 C 66.066406 274.152344 64.113281 274.152344 62.160156 274.152344 C 61.195312 274.152344 61.195312 275.648438 62.160156 275.648438 " fill-opacity="1" fill-rule="nonzero"/><path fill="#ffffff" d="M 26.972656 80.839844 C 40.945312 80.839844 54.917969 80.839844 68.890625 80.839844 C 79.914062 80.839844 90.933594 80.839844 101.953125 80.839844 C 111.949219 80.839844 121.945312 80.839844 131.941406 80.839844 C 142.6875 80.839844 153.433594 80.839844 164.179688 80.839844 C 177.734375 80.839844 191.292969 80.839844 204.851562 80.839844 C 206.773438 80.839844 208.695312 80.839844 210.617188 80.839844 C 211.578125 80.839844 211.578125 79.339844 210.617188 79.339844 C 196.644531 79.339844 182.667969 79.339844 168.695312 79.339844 C 157.675781 79.339844 146.65625 79.339844 135.632812 79.339844 C 125.636719 79.339844 115.640625 79.339844 105.644531 79.339844 C 94.898438 79.339844 84.15625 79.339844 73.410156 79.339844 C 59.851562 79.339844 46.292969 79.339844 32.734375 79.339844 C 30.8125 79.339844 28.894531 79.339844 26.972656 79.339844 C 26.007812 79.339844 26.007812 80.839844 26.972656 80.839844 " fill-opacity="1" fill-rule="nonzero"/><path fill="#ffffff" d="M 228.289062 286.9375 C 229.886719 288.128906 231.488281 289.316406 233.085938 290.507812 C 233.402344 290.742188 233.9375 290.570312 234.109375 290.238281 C 234.316406 289.847656 234.175781 289.464844 233.84375 289.214844 C 232.242188 288.027344 230.640625 286.832031 229.042969 285.644531 C 228.726562 285.410156 228.191406 285.582031 228.019531 285.914062 C 227.8125 286.304688 227.953125 286.6875 228.289062 286.9375 " fill-opacity="1" fill-rule="nonzero"/><path fill="#ffffff" d="M 230.367188 293.324219 C 231.558594 292.324219 232.777344 291.363281 233.992188 290.390625 C 234.300781 290.144531 234.265625 289.585938 233.992188 289.332031 C 233.667969 289.03125 233.261719 289.070312 232.933594 289.332031 C 231.71875 290.300781 230.5 291.265625 229.308594 292.269531 C 229.007812 292.519531 229.03125 293.070312 229.308594 293.324219 C 229.628906 293.621094 230.046875 293.597656 230.367188 293.324219 " fill-opacity="1" fill-rule="nonzero"/><path fill="#ffffff" d="M 237.894531 289.742188 C 238.382812 292.558594 237.070312 295.460938 234.339844 296.457031 C 231.316406 297.554688 227.9375 296.300781 225.75 294.101562 C 223.617188 291.953125 222.367188 288.53125 223.589844 285.671875 C 224.765625 282.925781 227.8125 281.785156 230.675781 282.386719 C 234.257812 283.144531 237.222656 286.136719 237.894531 289.742188 C 237.96875 290.140625 238.449219 290.367188 238.8125 290.265625 C 239.234375 290.152344 239.410156 289.742188 239.335938 289.34375 C 238.636719 285.582031 235.679688 282.421875 232.085938 281.222656 C 228.722656 280.097656 224.757812 280.941406 222.765625 284.039062 C 220.707031 287.242188 221.648438 291.410156 223.878906 294.242188 C 226.183594 297.167969 230.097656 298.960938 233.816406 298.164062 C 235.433594 297.816406 236.929688 296.914062 237.949219 295.597656 C 239.015625 294.230469 239.539062 292.515625 239.492188 290.78125 C 239.480469 290.300781 239.421875 289.820312 239.335938 289.34375 C 239.269531 288.945312 238.777344 288.722656 238.417969 288.820312 C 237.996094 288.9375 237.824219 289.34375 237.894531 289.742188 " fill-opacity="1" fill-rule="nonzero"/><path fill="#ffffff" d="M 91.941406 100.527344 L 22.992188 100.527344 C 20.117188 100.527344 17.640625 98.488281 17.085938 95.664062 L 10.441406 61.777344 C 9.710938 58.054688 12.558594 54.59375 16.347656 54.59375 L 77.980469 54.59375 C 80.859375 54.59375 83.332031 56.632812 83.886719 59.457031 L 91.941406 100.527344 " fill-opacity="1" fill-rule="nonzero"/><path fill="#180c45" d="M 26.746094 99.777344 C 25.878906 99.777344 25.011719 99.777344 24.144531 99.777344 C 23.089844 99.777344 22.070312 99.804688 21.0625 99.414062 C 19.703125 98.890625 18.5625 97.746094 18.0625 96.375 C 17.917969 95.976562 17.828125 95.570312 17.746094 95.15625 C 17.199219 92.367188 16.652344 89.578125 16.105469 86.789062 C 15.222656 82.273438 14.335938 77.753906 13.449219 73.238281 C 12.777344 69.800781 12.101562 66.363281 11.425781 62.921875 C 11.257812 62.070312 11.042969 61.214844 11.082031 60.335938 C 11.144531 58.890625 11.847656 57.539062 12.9375 56.59375 C 13.964844 55.699219 15.257812 55.34375 16.597656 55.34375 C 17.015625 55.34375 17.433594 55.34375 17.851562 55.34375 C 18.8125 55.34375 18.816406 53.84375 17.851562 53.84375 C 16.699219 53.84375 15.542969 53.789062 14.425781 54.121094 C 12.800781 54.605469 11.394531 55.707031 10.527344 57.164062 C 9.660156 58.617188 9.410156 60.320312 9.71875 61.976562 C 9.753906 62.144531 9.785156 62.3125 9.820312 62.480469 C 10.421875 65.558594 11.027344 68.636719 11.628906 71.710938 C 12.539062 76.359375 13.453125 81.007812 14.363281 85.65625 C 14.988281 88.839844 15.613281 92.027344 16.238281 95.210938 C 16.28125 95.421875 16.320312 95.636719 16.363281 95.851562 C 16.652344 97.285156 17.417969 98.628906 18.523438 99.585938 C 19.773438 100.671875 21.355469 101.265625 23.007812 101.277344 C 23.960938 101.28125 24.910156 101.277344 25.859375 101.277344 C 26.15625 101.277344 26.449219 101.277344 26.746094 101.277344 C 27.710938 101.277344 27.710938 99.777344 26.746094 99.777344 " fill-opacity="1" fill-rule="nonzero"/><path fill="#180c45" d="M 39.582031 77.558594 C 39.867188 79.027344 38.910156 80.214844 37.445312 80.214844 C 35.976562 80.214844 34.558594 79.027344 34.273438 77.558594 C 33.988281 76.09375 34.949219 74.902344 36.414062 74.902344 C 37.878906 74.902344 39.300781 76.09375 39.582031 77.558594 " fill-opacity="1" fill-rule="nonzero"/><path fill="#180c45" d="M 53.359375 77.558594 C 53.644531 79.027344 52.6875 80.214844 51.21875 80.214844 C 49.753906 80.214844 48.335938 79.027344 48.050781 77.558594 C 47.765625 76.09375 48.722656 74.902344 50.191406 74.902344 C 51.65625 74.902344 53.074219 76.09375 53.359375 77.558594 " fill-opacity="1" fill-rule="nonzero"/><path fill="#180c45" d="M 67.136719 77.558594 C 67.421875 79.027344 66.464844 80.214844 64.996094 80.214844 C 63.53125 80.214844 62.113281 79.027344 61.828125 77.558594 C 61.542969 76.09375 62.5 74.902344 63.964844 74.902344 C 65.433594 74.902344 66.851562 76.09375 67.136719 77.558594 " fill-opacity="1" fill-rule="nonzero"/><path fill="#ffffff" d="M 93.515625 108.566406 L 91.941406 100.527344 L 80.136719 94.347656 L 72.726562 100.527344 L 88.585938 111.761719 C 90.917969 113.410156 94.066406 111.371094 93.515625 108.566406 " fill-opacity="1" fill-rule="nonzero"/><path fill="#180c45" d="M 188.679688 154.757812 L 83.105469 154.757812 C 78.8125 154.757812 76.3125 157.800781 77.144531 162.015625 L 86.300781 208.550781 L 87.160156 212.898438 C 87.707031 215.691406 91.621094 217.75 93.351562 216.15625 L 101.621094 208.550781 L 202.789062 208.550781 C 207.082031 208.550781 209.578125 205.507812 208.75 201.292969 L 201.699219 165.476562 C 200.605469 159.921875 194.332031 154.757812 188.679688 154.757812 " fill-opacity="1" fill-rule="nonzero"/><path fill="#a0a0b8" d="M 248.84375 207.558594 C 248.613281 205.679688 248.25 203.824219 247.898438 201.96875 C 247.542969 200.113281 247.183594 198.261719 246.769531 196.417969 C 245.953125 192.75 244.960938 189.09375 243.410156 185.660156 C 242.015625 182.578125 240.359375 179.550781 238.433594 176.769531 C 236.546875 174.042969 234.308594 171.566406 231.800781 169.394531 C 228.785156 166.785156 225.535156 164.429688 222.359375 162.015625 C 221.117188 161.074219 219.871094 160.140625 218.632812 159.191406 C 218.550781 159.105469 218.457031 159.035156 218.347656 158.976562 C 218.128906 158.808594 217.910156 158.644531 217.691406 158.476562 C 217.238281 158.121094 216.71875 158.386719 216.535156 158.785156 C 215.410156 158.9375 214.285156 159.480469 213.359375 160.007812 C 212.105469 160.722656 211.046875 161.765625 210.117188 162.859375 C 209.082031 164.074219 208.15625 165.433594 207.488281 166.890625 C 206.917969 168.140625 206.507812 169.550781 206.808594 170.925781 C 207.410156 173.675781 209.902344 175.546875 212.121094 177.011719 C 214.542969 178.613281 217.007812 180.109375 219.265625 181.949219 C 221.621094 183.871094 223.816406 186.121094 225.242188 188.835938 C 226.84375 191.890625 227.210938 195.285156 227.085938 198.699219 C 226.949219 202.515625 226.234375 206.308594 225.214844 209.984375 C 224.699219 211.839844 224.066406 213.65625 223.613281 215.53125 C 223.15625 217.410156 222.820312 219.320312 222.613281 221.246094 C 222.398438 223.253906 222.320312 225.273438 222.363281 227.289062 C 222.402344 229.1875 222.628906 231.066406 222.726562 232.957031 C 222.824219 234.78125 222.863281 236.617188 223.203125 238.410156 C 223.488281 239.910156 223.929688 241.605469 225.25 242.535156 C 226.355469 243.3125 227.710938 243.453125 229.023438 243.324219 C 230.386719 243.191406 231.78125 242.839844 233.074219 242.410156 C 236.035156 241.417969 238.609375 239.46875 240.773438 237.257812 C 243.015625 234.972656 244.878906 232.28125 246.273438 229.398438 C 247.773438 226.296875 248.53125 222.921875 248.929688 219.511719 C 249.394531 215.550781 249.335938 211.515625 248.84375 207.558594 " fill-opacity="1" fill-rule="nonzero"/><path fill="#180c45" d="M 228.332031 201.019531 C 228.628906 200.753906 228.832031 200.59375 229.070312 200.421875 C 229.363281 200.214844 229.660156 200.023438 229.96875 199.847656 C 230.285156 199.667969 230.609375 199.503906 230.941406 199.351562 C 231.152344 199.253906 231.167969 199.246094 231.324219 199.183594 C 231.519531 199.109375 231.710938 199.035156 231.90625 198.96875 C 233.414062 198.441406 234.84375 198.191406 236.378906 198.140625 C 237.984375 198.085938 239.378906 198.234375 240.902344 198.683594 C 241.675781 198.910156 242.222656 199.125 242.902344 199.484375 C 243.222656 199.65625 243.535156 199.84375 243.835938 200.046875 C 244.183594 200.285156 244.308594 200.378906 244.621094 200.660156 C 245.871094 201.777344 246.621094 203.125 246.960938 204.785156 C 247.042969 205.179688 247.511719 205.410156 247.878906 205.308594 C 248.292969 205.195312 248.484375 204.785156 248.402344 204.386719 C 248.070312 202.742188 247.277344 201.214844 246.109375 200.011719 C 244.960938 198.832031 243.507812 198.003906 241.96875 197.453125 C 238.824219 196.335938 235.203125 196.375 232.03125 197.351562 C 230.289062 197.886719 228.632812 198.730469 227.277344 199.960938 C 226.5625 200.609375 227.625 201.664062 228.332031 201.019531 " fill-opacity="1" fill-rule="nonzero"/><path fill="#180c45" d="M 225.117188 215.425781 C 226.832031 214.96875 228.542969 214.855469 230.355469 215 C 232.148438 215.144531 234 215.585938 235.730469 216.257812 C 239.0625 217.550781 242.171875 219.867188 243.925781 223.03125 C 244.917969 224.832031 245.398438 226.84375 245.347656 228.914062 C 245.324219 229.878906 246.820312 229.878906 246.84375 228.914062 C 246.941406 224.84375 245.078125 221.066406 242.066406 218.382812 C 239.042969 215.691406 235.148438 214.070312 231.148438 213.582031 C 229.007812 213.324219 226.808594 213.425781 224.71875 213.980469 C 223.789062 214.226562 224.183594 215.671875 225.117188 215.425781 " fill-opacity="1" fill-rule="nonzero"/><path fill="#180c45" d="M 223.710938 184.550781 C 224.5 182.230469 226.054688 180.285156 228.160156 179.082031 C 230.15625 177.945312 232.453125 177.515625 234.746094 177.679688 C 235.988281 177.769531 237.285156 178.078125 238.5 178.566406 C 238.875 178.71875 239.320312 178.402344 239.421875 178.046875 C 239.535156 177.617188 239.273438 177.277344 238.898438 177.125 C 234.152344 175.207031 228.144531 176.097656 224.648438 180.003906 C 223.574219 181.210938 222.789062 182.621094 222.269531 184.152344 C 221.960938 185.066406 223.40625 185.457031 223.710938 184.550781 " fill-opacity="1" fill-rule="nonzero"/><path fill="#180c45" d="M 219.925781 156.304688 C 215.667969 148.914062 205.078125 147.3125 199.347656 153.964844 C 195.257812 158.710938 194.5 166.753906 196.800781 172.457031 C 198.835938 177.488281 204.015625 180.6875 209.449219 180.089844 C 217.152344 179.246094 221.984375 172.117188 222.0625 164.769531 C 222.09375 161.769531 221.363281 158.804688 219.925781 156.304688 " fill-opacity="1" fill-rule="nonzero"/><path fill="#ffffff" d="M 208.789062 156.035156 C 205.496094 147.101562 195.207031 142.304688 190.980469 141.210938 C 179.65625 138.28125 165.089844 137.675781 150.660156 137.597656 C 141.785156 137.550781 101.976562 137.46875 93.734375 139.910156 C 82.019531 143.378906 78.710938 154.902344 77.957031 161.839844 C 77.238281 168.460938 77.679688 177.746094 81.132812 184.003906 C 84.496094 190.101562 87.894531 194.519531 94.375 196.855469 C 106.730469 201.3125 125.535156 200.832031 139.933594 200.816406 C 151.289062 200.804688 162.648438 200.644531 173.992188 200.050781 C 183.28125 199.566406 194.441406 199.84375 202.25 193.917969 C 204.433594 192.269531 206.148438 190.113281 207.449219 187.714844 C 212.46875 178.472656 212.382812 165.773438 208.789062 156.035156 " fill-opacity="1" fill-rule="nonzero"/><path fill="#a0a0b8" d="M 167.070312 177.226562 C 165.078125 172.96875 158.90625 171.589844 154.675781 174.359375 C 149.65625 177.648438 149.375 187.699219 156.179688 189.589844 C 163.46875 191.613281 170.125 183.753906 167.070312 177.226562 " fill-opacity="1" fill-rule="nonzero"/><path fill="#a0a0b8" d="M 170.828125 123.28125 C 164.070312 121.558594 157.121094 120.363281 150.132812 120.335938 C 149.621094 120.335938 149.242188 120.917969 149.292969 121.386719 C 149.355469 121.949219 149.828125 122.222656 150.34375 122.230469 C 150.515625 122.230469 150.683594 122.238281 150.855469 122.242188 C 150.78125 122.335938 150.726562 122.457031 150.714844 122.617188 C 150.546875 124.722656 150.070312 127.511719 149.765625 129.59375 C 149.28125 132.890625 148.191406 140.09375 148.640625 142.214844 C 149.210938 144.886719 150.734375 147.371094 153.425781 148.296875 C 156.582031 149.382812 160.054688 149.507812 163.265625 148.582031 C 166.292969 147.707031 167.851562 145.507812 168.5 142.480469 C 169.757812 136.609375 170.585938 130.757812 171.621094 124.359375 C 171.710938 123.820312 171.285156 123.398438 170.828125 123.28125 " fill-opacity="1" fill-rule="nonzero"/><path fill="#180c45" d="M 94.9375 156.304688 C 90.679688 148.914062 80.09375 147.3125 74.359375 153.964844 C 70.269531 158.710938 69.511719 166.753906 71.8125 172.457031 C 73.847656 177.488281 79.027344 180.6875 84.460938 180.089844 C 92.164062 179.246094 96.996094 172.117188 97.074219 164.769531 C 97.105469 161.769531 96.375 158.804688 94.9375 156.304688 " fill-opacity="1" fill-rule="nonzero"/><path fill="#180c45" d="M 147.042969 139.96875 C 147.757812 145.289062 152.417969 149.402344 157.621094 150.144531 C 159.167969 150.363281 160.71875 150.308594 162.246094 149.964844 C 163.183594 149.753906 162.785156 148.308594 161.847656 148.519531 C 157.234375 149.5625 152.15625 147.417969 149.761719 143.316406 C 149.085938 142.164062 148.664062 140.898438 148.484375 139.570312 C 148.429688 139.171875 147.917969 138.953125 147.566406 139.046875 C 147.132812 139.167969 146.988281 139.566406 147.042969 139.96875 " fill-opacity="1" fill-rule="nonzero"/><path fill="#180c45" d="M 88.539062 192.960938 C 93.296875 192.402344 97.402344 189.578125 100.390625 185.925781 C 103.152344 182.550781 104.960938 178.605469 105.851562 174.34375 C 106.675781 170.398438 106.894531 166.3125 106.550781 162.296875 C 106.195312 158.128906 105.246094 153.992188 103.472656 150.191406 C 101.78125 146.566406 99.261719 143.3125 95.921875 141.074219 C 95.515625 140.804688 95.097656 140.550781 94.667969 140.308594 C 93.828125 139.839844 93.074219 141.132812 93.914062 141.601562 C 97.210938 143.449219 99.734375 146.300781 101.515625 149.621094 C 103.351562 153.042969 104.421875 156.929688 104.894531 160.765625 C 105.371094 164.625 105.320312 168.648438 104.691406 172.425781 C 104.394531 174.222656 103.980469 176.011719 103.375 177.730469 C 102.660156 179.75 101.636719 181.664062 100.417969 183.425781 C 97.9375 187 94.375 190.117188 90.074219 191.179688 C 89.570312 191.304688 89.054688 191.402344 88.539062 191.464844 C 88.136719 191.511719 87.789062 191.777344 87.789062 192.214844 C 87.789062 192.582031 88.132812 193.011719 88.539062 192.960938 " fill-opacity="1" fill-rule="nonzero"/><path fill="#180c45" d="M 127.375 139.359375 C 130.621094 145.601562 134.125 151.703125 137.542969 157.851562 C 138.890625 160.28125 140.40625 162.789062 142.609375 164.539062 C 143.703125 165.40625 144.925781 166.082031 146.28125 166.4375 C 147.09375 166.652344 147.929688 166.722656 148.765625 166.800781 C 149.777344 166.890625 150.789062 166.96875 151.804688 167.039062 C 155.992188 167.320312 160.191406 167.429688 164.390625 167.480469 C 167.1875 167.511719 170.074219 167.679688 172.820312 167.058594 C 174.050781 166.785156 175.269531 166.3125 176.28125 165.546875 C 177.433594 164.683594 178.246094 163.542969 178.777344 162.210938 C 179.085938 161.441406 179.289062 160.625 179.515625 159.828125 C 179.808594 158.789062 180.09375 157.75 180.371094 156.703125 C 181.664062 151.886719 182.894531 147.054688 184.152344 142.230469 C 184.25 141.859375 184.347656 141.492188 184.445312 141.125 C 184.691406 140.191406 183.246094 139.792969 183 140.726562 C 181.808594 145.230469 180.667969 149.746094 179.476562 154.246094 C 178.9375 156.289062 178.398438 158.335938 177.804688 160.363281 C 177.523438 161.320312 177.21875 162.246094 176.640625 163.078125 C 176.019531 163.976562 175.054688 164.683594 174.085938 165.097656 C 171.757812 166.09375 169.144531 166.027344 166.640625 166.003906 C 162.734375 165.96875 158.828125 165.910156 154.925781 165.71875 C 152.894531 165.621094 150.863281 165.488281 148.835938 165.308594 C 147.4375 165.183594 146.128906 164.960938 144.898438 164.285156 C 142.597656 163.023438 141.007812 160.789062 139.679688 158.570312 C 138.964844 157.375 138.3125 156.140625 137.648438 154.917969 C 136.851562 153.449219 136.007812 152.011719 135.179688 150.558594 C 133.421875 147.464844 131.695312 144.351562 130.03125 141.207031 C 129.574219 140.339844 129.117188 139.472656 128.664062 138.601562 C 128.222656 137.75 126.929688 138.503906 127.375 139.359375 " fill-opacity="1" fill-rule="nonzero"/><path fill="#a0a0b8" d="M 146.878906 252.613281 C 146.882812 252.617188 146.894531 252.613281 146.902344 252.613281 C 146.90625 252.609375 146.90625 252.613281 146.910156 252.609375 C 146.910156 252.609375 146.910156 252.609375 146.914062 252.605469 C 146.917969 252.605469 146.921875 252.605469 146.925781 252.601562 C 146.925781 252.601562 146.921875 252.601562 146.921875 252.601562 C 146.929688 252.597656 146.9375 252.59375 146.9375 252.59375 C 146.945312 252.597656 146.953125 252.59375 146.960938 252.585938 C 146.964844 252.582031 146.96875 252.582031 146.96875 252.582031 C 146.972656 252.582031 146.972656 252.578125 146.972656 252.578125 C 146.976562 252.578125 146.972656 252.578125 146.976562 252.578125 C 146.984375 252.570312 146.988281 252.566406 146.996094 252.558594 C 147.007812 252.550781 147.015625 252.539062 147.027344 252.523438 C 147.003906 252.539062 146.988281 252.554688 146.980469 252.566406 C 147 252.535156 146.949219 252.570312 146.914062 252.601562 C 146.875 252.605469 146.820312 252.605469 146.816406 252.613281 C 146.847656 252.613281 146.875 252.609375 146.878906 252.613281 " fill-opacity="1" fill-rule="nonzero"/><path fill="#ffffff" d="M 159.664062 232.1875 C 160.125 231.183594 160.578125 230.121094 160.804688 229.050781 C 161.339844 226.515625 160.769531 221.429688 157.390625 221.132812 C 153.9375 220.828125 150.546875 223.253906 148.222656 225.550781 C 145.34375 228.398438 142.53125 232.765625 142.996094 236.894531 C 143.265625 239.277344 144.558594 241.171875 146.453125 242.121094 C 148.34375 243.0625 150.785156 242.824219 152.808594 241.5 C 154.835938 240.171875 156.433594 237.949219 157.738281 235.808594 C 158.445312 234.640625 159.097656 233.429688 159.664062 232.1875 " fill-opacity="1" fill-rule="nonzero"/><path fill="#a0a0b8" d="M 152.28125 251.566406 C 153.710938 249.761719 149.347656 249.796875 149.472656 247.511719 C 149.597656 245.175781 149.199219 242.777344 148.484375 240.554688 C 148.375 240.214844 148.25 239.886719 148.109375 239.558594 C 147.757812 239.019531 147.316406 238.53125 146.84375 238.113281 C 143.164062 234.855469 137.796875 237.164062 133.722656 238.230469 C 131.75 238.746094 129.597656 239.050781 127.535156 239.34375 C 125.335938 239.65625 123.128906 239.894531 120.914062 240.046875 C 116.488281 240.347656 112.085938 240.300781 107.6875 239.683594 C 92.835938 237.597656 82.148438 227.625 80.078125 212.570312 C 78.695312 202.523438 80.972656 192.355469 83.566406 182.550781 C 84.546875 178.84375 85.582031 175.046875 85.191406 171.234375 C 84.804688 167.421875 82.640625 163.523438 79.023438 162.261719 C 75.671875 161.09375 71.828125 162.472656 69.25 164.914062 C 66.671875 167.355469 65.144531 170.699219 63.929688 174.039062 C 56.5625 194.285156 55.082031 222.648438 68.394531 240.921875 C 71.28125 244.886719 74.941406 248.246094 79.046875 250.914062 C 83.265625 253.65625 87.867188 255.734375 92.613281 257.382812 C 107.425781 262.523438 124.863281 263.691406 139.648438 257.980469 C 142.148438 257.015625 148.457031 254.308594 151.441406 253.105469 C 151.863281 252.765625 151.917969 252.023438 152.28125 251.566406 " fill-opacity="1" fill-rule="nonzero"/><path fill="#180c45" d="M 75.804688 246.4375 C 75.75 241.050781 77.378906 234.828125 82.101562 231.675781 C 83.449219 230.777344 84.949219 230.207031 86.535156 229.914062 C 86.933594 229.839844 87.160156 229.359375 87.058594 228.992188 C 86.945312 228.574219 86.539062 228.394531 86.136719 228.46875 C 83.164062 229.015625 80.464844 230.585938 78.53125 232.914062 C 76.589844 235.25 75.394531 238.125 74.800781 241.089844 C 74.449219 242.847656 74.289062 244.644531 74.308594 246.4375 C 74.316406 247.398438 75.8125 247.402344 75.804688 246.4375 " fill-opacity="1" fill-rule="nonzero"/><path fill="#180c45" d="M 61.398438 219.699219 C 61.839844 218.375 62.605469 217.175781 63.605469 216.179688 C 64.617188 215.171875 65.808594 214.410156 67.15625 213.808594 C 67.703125 213.566406 68.441406 213.308594 69.097656 213.128906 C 69.460938 213.027344 69.824219 212.941406 70.191406 212.867188 C 70.351562 212.835938 70.515625 212.808594 70.675781 212.78125 C 70.757812 212.765625 70.839844 212.753906 70.921875 212.742188 C 71.085938 212.714844 71.023438 212.722656 71.125 212.710938 C 71.816406 212.625 72.511719 212.582031 73.207031 212.59375 C 73.554688 212.597656 73.902344 212.613281 74.25 212.644531 C 74.644531 212.679688 74.726562 212.691406 75.09375 212.753906 C 75.777344 212.875 76.445312 213.058594 77.09375 213.3125 C 77.101562 213.316406 77.203125 213.355469 77.125 213.324219 C 77.050781 213.292969 77.175781 213.347656 77.1875 213.351562 C 77.269531 213.390625 77.347656 213.425781 77.429688 213.464844 C 77.574219 213.535156 77.714844 213.609375 77.855469 213.6875 C 77.980469 213.761719 78.105469 213.839844 78.230469 213.921875 C 78.296875 213.96875 78.367188 214.015625 78.433594 214.0625 C 78.457031 214.082031 78.480469 214.097656 78.507812 214.117188 C 78.597656 214.183594 78.371094 214.007812 78.523438 214.132812 C 78.835938 214.382812 79.273438 214.4375 79.582031 214.132812 C 79.84375 213.871094 79.898438 213.328125 79.582031 213.074219 C 77.398438 211.3125 74.371094 210.910156 71.652344 211.15625 C 68.480469 211.445312 65.324219 212.601562 62.9375 214.75 C 61.566406 215.984375 60.539062 217.550781 59.957031 219.300781 C 59.652344 220.21875 61.097656 220.609375 61.398438 219.699219 " fill-opacity="1" fill-rule="nonzero"/><path fill="#180c45" d="M 60.382812 195.445312 C 61.066406 194.273438 62.027344 193.34375 63.191406 192.65625 C 64.402344 191.941406 65.726562 191.527344 67.164062 191.304688 C 68.46875 191.097656 70.136719 191.109375 71.453125 191.289062 C 72.886719 191.484375 74.414062 191.898438 75.664062 192.457031 C 77.105469 193.105469 78.328125 193.898438 79.367188 195.039062 C 80.015625 195.75 81.074219 194.691406 80.421875 193.976562 C 78.351562 191.703125 75.277344 190.410156 72.289062 189.914062 C 69.121094 189.382812 65.707031 189.621094 62.832031 191.144531 C 61.289062 191.960938 59.972656 193.179688 59.089844 194.691406 C 58.601562 195.523438 59.894531 196.277344 60.382812 195.445312 " fill-opacity="1" fill-rule="nonzero"/><path fill="#180c45" d="M 101.71875 239.410156 C 100.40625 244.25 99.472656 249.203125 99.121094 254.210938 C 99.019531 255.644531 98.96875 257.085938 98.96875 258.523438 C 98.96875 259.488281 100.464844 259.488281 100.464844 258.523438 C 100.472656 253.601562 101.085938 248.710938 102.148438 243.90625 C 102.453125 242.53125 102.792969 241.164062 103.160156 239.808594 C 103.414062 238.875 101.972656 238.480469 101.71875 239.410156 " fill-opacity="1" fill-rule="nonzero"/><path fill="#180c45" d="M 123.5 241.175781 C 124.621094 246.050781 124.640625 251.242188 123.734375 256.15625 C 123.484375 257.503906 123.160156 258.835938 122.75 260.144531 C 122.457031 261.066406 123.902344 261.460938 124.191406 260.542969 C 125.738281 255.617188 126.179688 250.265625 125.652344 245.132812 C 125.503906 243.671875 125.273438 242.214844 124.945312 240.777344 C 124.726562 239.839844 123.285156 240.238281 123.5 241.175781 " fill-opacity="1" fill-rule="nonzero"/><path fill="#180c45" d="M 233.242188 183.289062 L 223.578125 261.15625 C 223.328125 263.160156 221.625 264.667969 219.605469 264.667969 L 156.285156 264.667969 C 153.878906 264.667969 152.015625 262.554688 152.3125 260.167969 L 161.976562 182.300781 C 162.226562 180.292969 163.933594 178.789062 165.949219 178.789062 L 229.273438 178.789062 C 231.679688 178.789062 233.539062 180.898438 233.242188 183.289062 " fill-opacity="1" fill-rule="nonzero"/><path fill="#ffffff" d="M 170.832031 235.648438 C 169.804688 231.101562 163.773438 230.546875 159.976562 230.800781 C 154.960938 231.136719 142.933594 236.664062 143.902344 243.132812 C 144.261719 245.558594 146.320312 247.09375 148.652344 247.429688 C 153.714844 248.160156 158.820312 245.269531 163.351562 243.429688 C 166.578125 242.121094 171.84375 240.121094 170.832031 235.648438 " fill-opacity="1" fill-rule="nonzero"/><path fill="#ffffff" d="M 162.84375 244.921875 C 158.246094 244.292969 152.910156 242.886719 148.269531 244.527344 C 146.136719 245.277344 144.46875 246.988281 144.566406 249.101562 C 144.820312 254.742188 157.152344 256.96875 161.941406 256.238281 C 165.5625 255.683594 171.152344 254 171.300781 249.964844 C 171.445312 245.996094 166.121094 245.375 162.84375 244.921875 " fill-opacity="1" fill-rule="nonzero"/><path fill="#ffffff" d="M 217.859375 243.429688 C 221.660156 245.269531 225.941406 248.160156 230.1875 247.429688 C 232.144531 247.09375 233.871094 245.558594 234.175781 243.132812 C 234.984375 236.664062 227.125 232.59375 220.6875 230.800781 C 217.613281 229.945312 212.445312 231.101562 211.582031 235.648438 C 210.734375 240.121094 215.152344 242.121094 217.859375 243.429688 " fill-opacity="1" fill-rule="nonzero"/><path fill="#ffffff" d="M 210.410156 246.628906 C 209.707031 250.605469 213.847656 253.511719 216.8125 254.375 C 223.632812 256.371094 231.171875 255.859375 232.539062 250.378906 C 233.046875 248.328125 232.03125 246.367188 230.429688 245.261719 C 226.957031 242.863281 222.289062 243.320312 218.382812 243.148438 C 215.601562 243.027344 211.101562 242.71875 210.410156 246.628906 " fill-opacity="1" fill-rule="nonzero"/><path fill="#ffffff" d="M 206.292969 87.339844 C 203.9375 82.738281 200.546875 78.726562 196.210938 76.148438 C 185.496094 69.769531 172.933594 69.640625 160.433594 69.265625 C 147.761719 68.890625 133.085938 68.484375 122.25 75.710938 C 117.671875 78.761719 114.132812 83.0625 111.925781 88.105469 C 105.488281 102.808594 107.917969 120.402344 121.910156 129.792969 C 134.207031 138.039062 144.457031 139.570312 159.015625 139.96875 C 172.539062 140.335938 194.488281 137.121094 201.894531 130.332031 C 206.605469 126.007812 209.535156 112.386719 210.074219 105.847656 C 210.574219 99.84375 209.25 93.125 206.292969 87.339844 " fill-opacity="1" fill-rule="nonzero"/><path fill="#ffffff" d="M 117.835938 100.269531 C 117.382812 98.890625 116.78125 97.601562 116.050781 96.480469 C 114.761719 94.5 112.382812 92.523438 109.765625 93.308594 C 107.464844 94 105.910156 96.300781 105.097656 98.265625 C 103.71875 101.589844 103.535156 105.296875 104.113281 108.871094 C 105.480469 117.324219 113.480469 122.835938 117.1875 114.28125 C 118.871094 110.390625 119.292969 104.722656 117.835938 100.269531 " fill-opacity="1" fill-rule="nonzero"/><path fill="#180c45" d="M 112.984375 119.242188 C 114.8125 118.933594 116.214844 117.554688 117.140625 116.019531 C 118.269531 114.140625 118.882812 111.925781 119.203125 109.769531 C 119.878906 105.179688 119.316406 100.246094 116.800781 96.261719 C 115.492188 94.1875 113.304688 92.269531 110.707031 92.390625 C 109.746094 92.4375 109.742188 93.933594 110.707031 93.890625 C 112.617188 93.800781 114.257812 95.179688 115.285156 96.675781 C 116.484375 98.429688 117.253906 100.480469 117.648438 102.5625 C 118.03125 104.585938 118.0625 106.675781 117.839844 108.71875 C 117.632812 110.628906 117.175781 112.585938 116.347656 114.328125 C 115.902344 115.257812 115.351562 116.144531 114.578125 116.839844 C 113.992188 117.363281 113.367188 117.667969 112.589844 117.800781 C 112.191406 117.867188 111.964844 118.359375 112.066406 118.71875 C 112.183594 119.144531 112.585938 119.3125 112.984375 119.242188 " fill-opacity="1" fill-rule="nonzero"/><path fill="#180c45" d="M 124.949219 129.902344 C 122.316406 125.265625 121.117188 119.941406 121.277344 114.621094 C 121.386719 111.019531 122.15625 107.417969 123.683594 104.148438 C 125.210938 100.882812 127.429688 98.007812 130.15625 95.65625 C 133.132812 93.09375 136.671875 91.210938 140.375 89.941406 C 144.789062 88.421875 149.4375 87.722656 154.089844 87.566406 C 157.914062 87.4375 161.746094 87.414062 165.570312 87.402344 C 169.792969 87.386719 174.011719 87.398438 178.234375 87.488281 C 182.617188 87.585938 187.007812 87.851562 191.296875 88.820312 C 194.910156 89.640625 198.417969 90.96875 201.433594 93.15625 C 203.984375 95.011719 206.042969 97.480469 207.667969 100.1875 C 208.09375 100.898438 208.492188 101.621094 208.871094 102.359375 C 209.3125 103.214844 210.601562 102.457031 210.164062 101.601562 C 208.625 98.621094 206.71875 95.796875 204.234375 93.523438 C 201.523438 91.050781 198.253906 89.332031 194.777344 88.214844 C 190.222656 86.75 185.382812 86.238281 180.621094 86.058594 C 176.660156 85.910156 172.695312 85.90625 168.730469 85.902344 C 164.480469 85.898438 160.226562 85.917969 155.976562 86.015625 C 151.472656 86.121094 146.988281 86.519531 142.621094 87.691406 C 138.542969 88.785156 134.585938 90.5 131.15625 92.980469 C 128.066406 95.207031 125.414062 98.015625 123.484375 101.3125 C 121.570312 104.582031 120.421875 108.234375 119.976562 111.988281 C 119.378906 116.980469 120.003906 122.195312 121.851562 126.875 C 122.367188 128.175781 122.964844 129.441406 123.65625 130.660156 C 124.132812 131.496094 125.425781 130.742188 124.949219 129.902344 " fill-opacity="1" fill-rule="nonzero"/><path fill="#180c45" d="M 130.367188 72.96875 C 134.519531 75.695312 137.554688 79.785156 139.011719 84.535156 C 139.40625 85.828125 139.703125 87.160156 139.878906 88.503906 C 139.933594 88.90625 140.183594 89.25 140.628906 89.25 C 140.992188 89.25 141.429688 88.90625 141.375 88.503906 C 140.691406 83.300781 138.542969 78.371094 134.796875 74.640625 C 133.683594 73.527344 132.441406 72.539062 131.125 71.675781 C 130.316406 71.144531 129.566406 72.441406 130.367188 72.96875 " fill-opacity="1" fill-rule="nonzero"/><path fill="#180c45" d="M 146.535156 236.832031 C 147.851562 235.730469 149.214844 234.691406 150.679688 233.796875 C 152.164062 232.894531 153.734375 232.144531 155.332031 231.472656 C 155.707031 231.316406 155.972656 230.976562 155.855469 230.550781 C 155.757812 230.199219 155.308594 229.871094 154.933594 230.027344 C 153.214844 230.75 151.519531 231.535156 149.925781 232.503906 C 148.351562 233.464844 146.886719 234.589844 145.476562 235.773438 C 145.167969 236.03125 145.210938 236.5625 145.476562 236.832031 C 145.785156 237.136719 146.226562 237.089844 146.535156 236.832031 " fill-opacity="1" fill-rule="nonzero"/><path fill="#180c45" d="M 146.007812 248.285156 C 147.660156 248.53125 149.347656 248.5 151.011719 248.40625 C 153.15625 248.28125 155.304688 248.011719 157.40625 247.558594 C 158.503906 247.324219 159.59375 247.03125 160.648438 246.640625 C 161.027344 246.5 161.285156 246.132812 161.171875 245.71875 C 161.070312 245.355469 160.628906 245.054688 160.25 245.195312 C 158.394531 245.886719 156.433594 246.285156 154.476562 246.566406 C 152.566406 246.839844 150.625 246.984375 148.695312 246.972656 C 148.257812 246.96875 147.820312 246.957031 147.382812 246.929688 C 147.199219 246.921875 147.011719 246.90625 146.828125 246.890625 C 146.734375 246.878906 146.644531 246.871094 146.554688 246.859375 C 146.519531 246.859375 146.488281 246.855469 146.457031 246.847656 C 146.636719 246.871094 146.429688 246.84375 146.40625 246.84375 C 146.007812 246.78125 145.601562 246.941406 145.488281 247.367188 C 145.390625 247.714844 145.605469 248.226562 146.007812 248.285156 " fill-opacity="1" fill-rule="nonzero"/><path fill="#180c45" d="M 216.355469 244.757812 C 218.597656 245.917969 220.976562 246.832031 223.414062 247.484375 C 225.925781 248.160156 228.546875 248.582031 231.15625 248.492188 C 232.113281 248.460938 232.121094 246.960938 231.15625 246.996094 C 228.675781 247.078125 226.203125 246.683594 223.8125 246.039062 C 221.496094 245.417969 219.242188 244.566406 217.113281 243.464844 C 216.257812 243.019531 215.5 244.3125 216.355469 244.757812 " fill-opacity="1" fill-rule="nonzero"/><path fill="#180c45" d="M 183.300781 72.632812 C 183.441406 72.738281 183.210938 72.558594 183.300781 72.632812 C 183.339844 72.660156 183.375 72.695312 183.414062 72.722656 C 183.476562 72.773438 183.539062 72.828125 183.601562 72.878906 C 183.765625 73.019531 183.921875 73.160156 184.078125 73.304688 C 184.429688 73.628906 184.765625 73.972656 185.09375 74.324219 C 185.871094 75.152344 186.597656 76.03125 187.265625 76.945312 C 188.816406 79.066406 190.171875 81.386719 191.019531 83.882812 C 191.492188 85.273438 191.808594 86.71875 191.828125 88.195312 C 191.84375 89.15625 193.339844 89.160156 193.324219 88.195312 C 193.28125 85.328125 192.289062 82.554688 190.972656 80.042969 C 189.746094 77.699219 188.191406 75.503906 186.414062 73.546875 C 185.6875 72.746094 184.914062 71.992188 184.054688 71.339844 C 183.730469 71.09375 183.21875 71.285156 183.03125 71.605469 C 182.804688 71.992188 182.976562 72.386719 183.300781 72.632812 " fill-opacity="1" fill-rule="nonzero"/><path fill="#a0a0b8" d="M 185.320312 178.789062 C 185.460938 180.515625 185.628906 182.550781 185.667969 182.957031 C 185.738281 183.695312 185.777344 184.460938 185.964844 185.160156 C 186.011719 185.335938 186.125 185.453125 186.261719 185.527344 C 186.351562 185.605469 186.46875 185.660156 186.625 185.664062 C 190.300781 185.785156 194.023438 185.71875 197.726562 185.71875 L 203.222656 185.71875 C 205.082031 185.71875 206.949219 185.6875 208.808594 185.6875 C 209.472656 185.6875 209.910156 184.964844 210.007812 184.765625 C 211 182.730469 211.90625 180.765625 212.796875 178.789062 L 185.320312 178.789062 " fill-opacity="1" fill-rule="nonzero"/><path fill="#180c45" d="M 210.613281 116.40625 C 210.410156 130.128906 199.289062 141.253906 180.011719 141.253906 L 155.160156 141.253906 C 135.480469 141.253906 124.386719 130.128906 124.589844 116.40625 C 124.796875 102.683594 136.453125 91.558594 156.589844 91.558594 L 179.019531 91.558594 C 202.273438 91.558594 210.816406 102.683594 210.613281 116.40625 " fill-opacity="1" fill-rule="nonzero"/><path fill="#40c79a" d="M 156.375 121.582031 C 156.164062 123.460938 155.699219 125.367188 154.792969 127.023438 C 153.996094 128.480469 152.820312 129.714844 151.320312 130.347656 C 149.691406 131.039062 147.695312 131.140625 146.042969 130.5625 C 144.714844 130.101562 143.761719 128.996094 143.300781 127.671875 C 142.707031 125.976562 142.699219 124.171875 142.84375 122.367188 C 142.996094 120.46875 143.347656 118.484375 144.078125 116.753906 C 144.730469 115.207031 145.710938 113.855469 147.140625 113.054688 C 148.609375 112.230469 150.578125 112.035156 152.242188 112.417969 C 152.640625 112.511719 153.054688 112.644531 153.355469 112.789062 C 153.523438 112.867188 153.6875 112.957031 153.847656 113.054688 C 153.925781 113.105469 154.003906 113.152344 154.078125 113.207031 C 154.105469 113.222656 154.308594 113.371094 154.242188 113.320312 C 154.882812 113.824219 155.261719 114.328125 155.625 115.039062 C 155.96875 115.703125 156.199219 116.503906 156.339844 117.3125 C 156.484375 118.152344 156.519531 119.121094 156.488281 120.027344 C 156.472656 120.546875 156.433594 121.0625 156.375 121.582031 C 156.332031 121.984375 156.75 122.332031 157.125 122.332031 C 157.566406 122.332031 157.828125 121.984375 157.875 121.582031 C 158.265625 117.9375 157.800781 113.160156 153.996094 111.441406 C 152.101562 110.585938 149.765625 110.515625 147.792969 111.152344 C 145.925781 111.753906 144.433594 113.050781 143.433594 114.722656 C 142.359375 116.511719 141.828125 118.597656 141.542969 120.648438 C 141.246094 122.765625 141.117188 124.960938 141.574219 127.066406 C 141.957031 128.8125 142.847656 130.449219 144.386719 131.417969 C 146.132812 132.515625 148.441406 132.617188 150.40625 132.195312 C 152.386719 131.777344 154.066406 130.617188 155.28125 129.019531 C 156.53125 127.378906 157.238281 125.347656 157.617188 123.335938 C 157.726562 122.753906 157.804688 122.167969 157.875 121.582031 C 157.917969 121.179688 157.496094 120.832031 157.125 120.832031 C 156.683594 120.832031 156.421875 121.175781 156.375 121.582031 " fill-opacity="1" fill-rule="nonzero"/><path fill="#40c79a" d="M 199.257812 121.582031 C 199.046875 123.460938 198.582031 125.367188 197.675781 127.023438 C 196.875 128.480469 195.699219 129.714844 194.203125 130.347656 C 192.574219 131.039062 190.578125 131.140625 188.925781 130.5625 C 187.59375 130.101562 186.640625 128.996094 186.179688 127.671875 C 185.589844 125.976562 185.582031 124.171875 185.726562 122.367188 C 185.878906 120.46875 186.230469 118.484375 186.957031 116.753906 C 187.613281 115.207031 188.589844 113.855469 190.023438 113.054688 C 191.492188 112.230469 193.457031 112.035156 195.125 112.417969 C 195.523438 112.511719 195.933594 112.644531 196.234375 112.789062 C 196.40625 112.867188 196.570312 112.957031 196.730469 113.054688 C 196.808594 113.105469 196.886719 113.152344 196.960938 113.207031 C 196.988281 113.222656 197.1875 113.371094 197.125 113.320312 C 197.761719 113.824219 198.144531 114.328125 198.507812 115.039062 C 198.847656 115.703125 199.078125 116.503906 199.21875 117.3125 C 199.367188 118.152344 199.402344 119.121094 199.371094 120.027344 C 199.355469 120.546875 199.3125 121.0625 199.257812 121.582031 C 199.214844 121.984375 199.632812 122.332031 200.003906 122.332031 C 200.445312 122.332031 200.710938 121.984375 200.753906 121.582031 C 201.148438 117.9375 200.683594 113.160156 196.878906 111.441406 C 194.984375 110.585938 192.648438 110.515625 190.675781 111.152344 C 188.808594 111.753906 187.316406 113.050781 186.316406 114.722656 C 185.242188 116.511719 184.707031 118.597656 184.421875 120.648438 C 184.125 122.765625 184 124.960938 184.457031 127.066406 C 184.835938 128.8125 185.730469 130.449219 187.269531 131.417969 C 189.011719 132.515625 191.324219 132.617188 193.289062 132.195312 C 195.265625 131.777344 196.949219 130.617188 198.164062 129.019531 C 199.414062 127.378906 200.121094 125.347656 200.496094 123.335938 C 200.605469 122.753906 200.6875 122.167969 200.753906 121.582031 C 200.800781 121.179688 200.378906 120.832031 200.003906 120.832031 C 199.5625 120.832031 199.304688 121.175781 199.257812 121.582031 " fill-opacity="1" fill-rule="nonzero"/><path fill="#40c79a" d="M 173.238281 131.621094 C 172.300781 131.621094 171.367188 131.621094 170.433594 131.621094 C 169.449219 131.621094 168.417969 131.703125 167.4375 131.589844 C 165.835938 131.40625 164.472656 130.296875 164.007812 128.773438 C 163.882812 128.371094 163.820312 127.984375 163.8125 127.570312 C 163.804688 127.328125 163.8125 127.085938 163.84375 126.84375 C 163.820312 127.042969 163.855469 126.8125 163.878906 126.742188 C 163.914062 126.640625 163.960938 126.546875 164.023438 126.460938 C 164.25 126.148438 164.582031 126.03125 164.949219 126.027344 C 166.957031 126.019531 168.960938 126.027344 170.96875 126.027344 C 173.117188 126.027344 175.265625 126.027344 177.414062 126.027344 C 177.605469 126.027344 177.824219 126.011719 177.992188 126.074219 C 178.726562 126.347656 178.449219 127.289062 178.253906 127.90625 C 177.710938 129.589844 176.265625 130.953125 174.574219 131.429688 C 174.132812 131.558594 173.695312 131.613281 173.238281 131.621094 C 172.273438 131.628906 172.273438 133.128906 173.238281 133.117188 C 175.460938 133.097656 177.507812 131.933594 178.785156 130.132812 C 179.425781 129.238281 179.820312 128.179688 179.949219 127.089844 C 180.082031 125.976562 179.40625 124.882812 178.300781 124.605469 C 177.648438 124.441406 176.882812 124.535156 176.222656 124.535156 C 174.929688 124.535156 173.640625 124.535156 172.347656 124.535156 C 169.945312 124.535156 167.546875 124.535156 165.144531 124.535156 C 164.804688 124.535156 164.460938 124.535156 164.132812 124.636719 C 162.945312 125.019531 162.359375 126.074219 162.316406 127.261719 C 162.242188 129.304688 163.273438 131.296875 165.042969 132.335938 C 166.304688 133.074219 167.664062 133.117188 169.070312 133.117188 C 170.363281 133.117188 171.65625 133.117188 172.945312 133.117188 C 173.042969 133.117188 173.140625 133.117188 173.238281 133.117188 C 174.199219 133.117188 174.203125 131.621094 173.238281 131.621094 " fill-opacity="1" fill-rule="nonzero"/><path fill="#180c45" d="M 297.046875 95.039062 C 297.101562 94.824219 297.132812 94.597656 297.132812 94.359375 C 297.132812 92.816406 295.882812 91.5625 294.335938 91.5625 C 292.792969 91.5625 291.542969 92.816406 291.542969 94.359375 C 291.542969 94.496094 291.554688 94.628906 291.570312 94.757812 C 290.75 95.476562 290.234375 96.53125 290.234375 97.707031 C 290.234375 99.882812 291.992188 101.644531 294.164062 101.644531 C 296.332031 101.644531 298.09375 99.882812 298.09375 97.707031 C 298.09375 96.675781 297.695312 95.742188 297.046875 95.039062 " fill-opacity="1" fill-rule="nonzero"/><g clip-path="url(#58b0a8e8d5)"><path fill="#180c45" d="M 374.285156 338.757812 C 374.128906 338.207031 373.953125 337.667969 373.753906 337.132812 C 373.363281 336.070312 372.9375 335.007812 372.332031 334.046875 C 369.304688 329.238281 367.011719 328.140625 364.457031 326.589844 C 364.042969 326.34375 363.679688 326.464844 363.507812 326.792969 C 363.097656 326.917969 362.703125 327.085938 362.324219 327.289062 C 362.207031 327.214844 362.070312 327.171875 361.910156 327.199219 C 359.496094 327.554688 360.292969 329.957031 358.117188 331.039062 C 355.917969 332.121094 353.855469 333.484375 352.019531 335.109375 C 350.980469 336.027344 350.027344 337.027344 349.136719 338.097656 C 349.03125 338.222656 348.984375 338.363281 348.984375 338.492188 C 348.640625 338.546875 348.316406 338.882812 348.449219 339.320312 C 349.1875 341.777344 347.476562 344.222656 345.859375 345.886719 C 343.988281 347.804688 341.78125 349.417969 340.554688 351.863281 C 339.894531 353.171875 339.847656 354.046875 340.074219 355.007812 C 340.125 355.222656 340.519531 356.25 341.453125 356.25 L 350.613281 356.25 C 353.457031 356.25 358.394531 353.855469 360.390625 352.628906 C 366.128906 349.109375 368.847656 347.210938 372.992188 343.59375 C 373.917969 342.78125 374.660156 341.855469 374.636719 340.542969 C 374.625 339.933594 374.449219 339.335938 374.285156 338.757812 " fill-opacity="1" fill-rule="nonzero"/></g><path fill="#40c79a" d="M 370.980469 319.296875 C 369.703125 316.269531 367.777344 313.425781 366.105469 310.613281 C 363.050781 305.480469 359.929688 300.390625 356.796875 295.304688 C 353.382812 289.765625 349.949219 284.242188 346.5 278.726562 C 343.894531 274.554688 341.285156 270.386719 338.664062 266.222656 C 337.164062 263.84375 336.027344 261.660156 335.253906 258.945312 C 334.421875 256.042969 333.839844 253.054688 333.722656 250.03125 C 333.464844 243.484375 334.992188 236.925781 336.09375 230.511719 C 337.207031 224 338.34375 217.488281 339.4375 210.972656 C 340.488281 204.707031 341.398438 198.34375 341 191.972656 C 340.386719 182.234375 335.820312 171.550781 326.371094 167.414062 C 326.53125 167.28125 326.628906 167.058594 326.605469 166.863281 C 326.566406 166.507812 326.265625 166.324219 325.933594 166.324219 C 325.605469 166.324219 325.363281 166.695312 325.398438 166.996094 C 325.398438 167.007812 325.402344 167.015625 325.40625 167.027344 C 324.632812 166.742188 323.851562 166.507812 323.050781 166.316406 C 322.507812 166.1875 322.246094 166.695312 322.355469 167.121094 C 322.242188 167.222656 322.15625 167.363281 322.121094 167.554688 C 319.949219 179.117188 318.097656 190.746094 316.390625 202.382812 C 314.679688 214.027344 313.171875 225.699219 311.886719 237.398438 C 311.167969 243.949219 310.507812 250.507812 309.976562 257.078125 C 309.929688 257.6875 310.59375 257.964844 310.992188 257.742188 C 312.382812 264.667969 314.0625 271.539062 315.925781 278.347656 C 318 285.9375 320.34375 293.453125 322.941406 300.882812 C 325.535156 308.308594 328.386719 315.648438 331.488281 322.878906 C 332.890625 326.148438 334.242188 329.484375 335.984375 332.589844 C 337.453125 335.207031 339.226562 339.1875 341.929688 340.613281 C 345.878906 342.691406 352.488281 337.523438 355.601562 335.507812 C 360.074219 332.609375 364.292969 329.320312 368.191406 325.6875 C 370.082031 323.925781 372.113281 321.996094 370.980469 319.296875 " fill-opacity="1" fill-rule="nonzero"/><path fill="#180c45" d="M 330.265625 281.457031 C 329.976562 278.050781 329.410156 274.671875 328.699219 271.324219 C 327.273438 264.601562 325.988281 255.375 325.332031 248.542969 C 324.371094 238.570312 330.152344 214.707031 330.605469 211.453125 C 330.1875 210.828125 321.320312 219.765625 320.871094 219.171875 C 320.144531 220.328125 319.4375 221.496094 318.75 222.671875 C 317.039062 225.601562 315.453125 228.609375 314.011719 231.683594 C 313.316406 233.15625 312.65625 234.648438 312.027344 236.152344 C 311.980469 236.566406 311.933594 236.984375 311.886719 237.398438 C 311.167969 243.949219 310.507812 250.507812 309.976562 257.078125 C 309.929688 257.6875 310.589844 257.960938 310.992188 257.742188 C 312.382812 264.667969 314.0625 271.539062 315.925781 278.347656 C 318 285.9375 320.347656 293.453125 322.941406 300.882812 C 324.355469 304.929688 325.847656 308.949219 327.414062 312.945312 C 328.742188 306.148438 329.910156 299.285156 330.339844 292.367188 C 330.566406 288.738281 330.574219 285.082031 330.265625 281.457031 " fill-opacity="1" fill-rule="nonzero"/><path fill="#180c45" d="M 361.910156 328.675781 C 361.886719 328.6875 361.859375 328.703125 361.851562 328.703125 C 361.851562 328.707031 361.851562 328.707031 361.851562 328.707031 C 361.859375 328.710938 361.910156 328.679688 361.910156 328.675781 " fill-opacity="1" fill-rule="nonzero"/><g clip-path="url(#6c436fd6ad)"><path fill="#6f60ab" d="M 340.984375 353.707031 C 345.90625 353.738281 350.875 353.996094 355.558594 352.207031 C 360.152344 350.457031 364.167969 347.582031 367.929688 344.472656 C 370 342.761719 372 340.972656 374.042969 339.230469 C 374.351562 338.96875 374.316406 338.441406 374.042969 338.171875 C 373.738281 337.867188 373.292969 337.910156 372.984375 338.171875 C 369.433594 341.203125 365.992188 344.390625 362.121094 347.023438 C 360.179688 348.339844 358.136719 349.523438 355.976562 350.4375 C 353.808594 351.351562 351.523438 351.910156 349.183594 352.113281 C 346.460938 352.351562 343.71875 352.226562 340.984375 352.210938 C 340.023438 352.203125 340.019531 353.703125 340.984375 353.707031 " fill-opacity="1" fill-rule="nonzero"/></g><path fill="#180c45" d="M 238.714844 125.605469 L 252.597656 152.417969 C 252.953125 153.109375 253.746094 153.628906 254.441406 153.628906 L 276.246094 153.628906 C 277.078125 153.628906 277.433594 152.902344 277.007812 152.082031 L 263.121094 125.265625 C 262.761719 124.574219 261.96875 124.054688 261.277344 124.054688 L 239.46875 124.054688 C 238.640625 124.054688 238.289062 124.78125 238.714844 125.605469 " fill-opacity="1" fill-rule="nonzero"/><path fill="#a85e36" d="M 298.144531 135.015625 C 298.84375 133.066406 299.519531 131.109375 300.171875 129.140625 C 300.109375 129.199219 300.054688 129.261719 300.019531 129.335938 C 299.910156 129.273438 299.800781 129.210938 299.6875 129.152344 C 299.101562 128.828125 298.511719 128.511719 297.914062 128.199219 C 292.9375 125.578125 287.53125 122.535156 281.90625 121.652344 C 276.875 120.859375 272.5 123.191406 268.832031 126.429688 C 267.679688 127.445312 259.195312 134.945312 263.457031 136.269531 C 264.90625 136.71875 266.351562 135.933594 267.710938 135.421875 C 268.550781 135.105469 269.367188 134.734375 270.164062 134.324219 C 269.863281 135.035156 269.601562 135.816406 269.917969 136.539062 C 270.210938 137.21875 270.910156 137.707031 272.082031 137.636719 C 274.785156 137.476562 280.445312 134.164062 280.605469 134.082031 C 284.632812 137.34375 290.210938 141.457031 294.5 144.367188 C 295.738281 141.257812 297.015625 138.171875 298.144531 135.015625 " fill-opacity="1" fill-rule="nonzero"/><path fill="#a85e36" d="M 307.902344 119.277344 C 310.832031 117.527344 313.75 115.71875 316.550781 113.777344 C 314.476562 110.054688 312.335938 106.363281 310.210938 102.667969 C 307.628906 104.871094 304.984375 106.992188 302.242188 108.996094 C 303.210938 110.90625 304.214844 112.800781 305.257812 114.667969 C 306.117188 116.210938 306.980469 117.765625 307.902344 119.277344 " fill-opacity="1" fill-rule="nonzero"/><path fill="#f0dece" d="M 305.730469 120.238281 C 305.730469 120.238281 308.777344 112.277344 314.515625 109.835938 C 316.035156 109.191406 319.117188 114.375 319.117188 114.375 C 319.117188 114.375 310.359375 123.128906 305.730469 120.238281 " fill-opacity="1" fill-rule="nonzero"/><path fill="#a85e36" d="M 304.703125 93.332031 C 302.242188 92.105469 296.542969 93.289062 294.390625 94.953125 C 290.574219 97.898438 293.101562 102.03125 293.523438 106.554688 C 293.667969 108.144531 293.738281 110.246094 294.082031 112.246094 C 294.214844 113.011719 294.390625 113.769531 294.625 114.46875 C 295.238281 116.269531 296.257812 117.726562 298.050781 118.230469 C 300.574219 118.933594 304.199219 116.925781 306.199219 114.628906 C 306.214844 114.609375 309.402344 110.507812 309.855469 107.90625 C 310.332031 105.21875 310.316406 102.285156 309.578125 99.644531 C 308.828125 96.960938 307.238281 94.597656 304.703125 93.332031 " fill-opacity="1" fill-rule="nonzero"/><path fill="#180c45" d="M 295.949219 102.78125 C 295.871094 102.625 295.757812 102.488281 295.625 102.382812 C 295.039062 101.941406 294.171875 101.789062 293.488281 102.085938 C 293.402344 102.125 293.3125 102.167969 293.230469 102.214844 C 293.089844 102.300781 292.945312 102.480469 292.875 102.625 C 292.707031 102.953125 292.734375 103.363281 292.9375 103.667969 C 293.097656 103.914062 293.347656 104.0625 293.628906 104.128906 C 293.964844 104.203125 294.339844 104.015625 294.679688 103.992188 C 295.074219 103.964844 295.46875 103.988281 295.679688 103.867188 C 295.933594 103.722656 296.070312 103.496094 296.046875 103.136719 C 296.039062 103.011719 296.003906 102.894531 295.949219 102.78125 " fill-opacity="1" fill-rule="nonzero"/><path fill="#ffffff" d="M 296.207031 111.105469 C 296.207031 111.105469 296.222656 112.757812 294.4375 113.839844 C 294.167969 113.140625 294 112.386719 293.980469 111.601562 L 296.207031 111.105469 " fill-opacity="1" fill-rule="nonzero"/><path fill="#180c45" d="M 311.800781 99.910156 C 312.878906 99.207031 313.59375 97.992188 313.59375 96.609375 C 313.59375 94.8125 312.382812 93.296875 310.734375 92.828125 C 310.765625 92.671875 310.785156 92.515625 310.785156 92.351562 C 310.785156 90.875 309.589844 89.679688 308.117188 89.679688 C 307.816406 89.679688 307.527344 89.730469 307.257812 89.824219 C 306.929688 89.480469 306.535156 89.207031 306.070312 89.0625 C 305.300781 88.8125 304.425781 88.871094 303.703125 89.230469 C 303.28125 89.027344 302.808594 88.910156 302.308594 88.910156 C 301.242188 88.910156 300.300781 89.429688 299.71875 90.222656 C 299.125 89.878906 298.441406 89.699219 297.71875 89.765625 C 295.707031 89.949219 294.050781 91.746094 294.324219 93.808594 C 294.351562 93.992188 294.390625 94.171875 294.4375 94.347656 C 294.222656 94.402344 294.015625 94.488281 293.820312 94.605469 C 292.714844 95.269531 292.28125 96.601562 292.5 97.828125 C 292.71875 99.03125 293.574219 100.105469 294.644531 100.671875 C 295.710938 101.234375 296.941406 101.363281 298.132812 101.257812 C 298.132812 101.46875 298.140625 101.683594 298.164062 101.898438 C 298.296875 102.945312 298.664062 104.039062 299.457031 104.777344 C 299.707031 105.015625 299.988281 105.183594 300.28125 105.304688 C 301.214844 105.476562 301.839844 105.324219 302.242188 104.933594 C 302.582031 104.957031 302.929688 104.949219 303.277344 104.90625 C 303.164062 105.066406 303.128906 105.273438 303.25 105.476562 C 304.261719 107.160156 306.207031 108.132812 308.15625 108.109375 C 309.742188 108.089844 312.539062 106.992188 312.503906 106.625 C 312.347656 104.996094 312.175781 102.699219 312 101.40625 C 311.945312 101.011719 311.875 100.46875 311.800781 99.910156 " fill-opacity="1" fill-rule="nonzero"/><path fill="#a85e36" d="M 293.886719 105.75 C 293.886719 105.75 292.589844 107.964844 291.816406 109.214844 C 291.335938 109.992188 291.625 111.78125 294.578125 110.835938 C 296.609375 110.183594 293.886719 105.75 293.886719 105.75 " fill-opacity="1" fill-rule="nonzero"/><path fill="#a85e36" d="M 300.40625 107.421875 C 301.035156 108.929688 302.769531 109.640625 304.277344 109.007812 C 305.785156 108.378906 306.492188 106.644531 305.863281 105.132812 C 305.230469 103.625 303.496094 102.914062 301.988281 103.546875 C 300.484375 104.179688 299.773438 105.914062 300.40625 107.421875 " fill-opacity="1" fill-rule="nonzero"/><path fill="#180c45" d="M 295.625 105.863281 C 295.785156 106.589844 295.582031 107.324219 295.054688 107.542969 C 294.464844 107.792969 294.066406 107.3125 293.90625 106.582031 C 293.746094 105.851562 293.90625 105.140625 294.472656 104.902344 C 295.101562 104.640625 295.464844 105.132812 295.625 105.863281 " fill-opacity="1" fill-rule="nonzero"/><g clip-path="url(#98cf1a0f15)"><path fill="#180c45" d="M 316.898438 356.25 L 281.246094 356.25 C 280.429688 356.25 279.753906 355.273438 279.691406 354.949219 C 279.023438 351.605469 281.269531 348.9375 284.320312 347.050781 C 287.441406 345.117188 290.636719 343.394531 293.453125 341.066406 C 298.171875 337.167969 302.082031 332.476562 305.832031 327.667969 C 308.074219 328.875 310.40625 329.871094 312.675781 331.007812 C 315.21875 339.390625 316.808594 347.9375 316.898438 356.25 " fill-opacity="1" fill-rule="nonzero"/></g><path fill="#6f60ab" d="M 280.832031 353.753906 C 290.039062 353.753906 299.242188 353.753906 308.449219 353.753906 C 311.027344 353.753906 313.601562 353.753906 316.179688 353.753906 C 317.140625 353.753906 317.144531 352.253906 316.179688 352.253906 C 306.976562 352.253906 297.769531 352.253906 288.5625 352.253906 C 285.988281 352.253906 283.410156 352.253906 280.832031 352.253906 C 279.871094 352.253906 279.871094 353.753906 280.832031 353.753906 " fill-opacity="1" fill-rule="nonzero"/><path fill="#40c79a" d="M 332.976562 182.308594 C 332.445312 177.054688 331.863281 170.878906 328.277344 166.789062 C 322.308594 165.082031 316.875 164.835938 310.902344 166.164062 C 309.378906 166.503906 309.253906 173.273438 307.742188 173.722656 C 304.753906 174.617188 295.382812 212.011719 293.875 221.726562 C 290.117188 245.917969 286.757812 266.5625 285.449219 288.625 C 284.460938 305.296875 283.023438 323.078125 284.789062 339.742188 C 285.269531 344.285156 289.949219 344 295.972656 343.976562 C 298.355469 343.964844 300.734375 343.71875 303.097656 343.457031 C 306.707031 343.054688 310.230469 342.546875 313.777344 341.785156 C 316.511719 341.199219 319.464844 340.71875 321.996094 339.242188 C 322.605469 338.886719 323.113281 338.371094 323.523438 337.792969 C 324.785156 335.992188 323.613281 328.621094 323.394531 326.320312 C 322.707031 319.132812 321.585938 312 320.433594 304.871094 C 318.132812 290.574219 315.679688 276.105469 316.789062 261.570312 C 317.828125 247.945312 322.730469 235.167969 326.980469 222.304688 C 329.074219 215.972656 331.011719 209.570312 332.195312 203 C 333.425781 196.140625 333.679688 189.242188 332.976562 182.308594 " fill-opacity="1" fill-rule="nonzero"/><path fill="#180c45" d="M 318.984375 283.507812 C 318.730469 277.277344 318.671875 271.039062 318.980469 264.8125 C 319.265625 259.019531 319.871094 253.238281 320.957031 247.542969 C 321.484375 244.792969 322.117188 242.0625 322.875 239.371094 C 323.695312 236.460938 324.679688 233.597656 325.625 230.726562 C 327.613281 224.695312 329.589844 218.648438 331.121094 212.480469 C 332.644531 206.367188 333.734375 200.113281 333.925781 193.804688 C 333.949219 193.027344 333.957031 192.25 333.953125 191.46875 C 333.949219 190.507812 332.453125 190.503906 332.457031 191.46875 C 332.484375 197.769531 331.566406 204.019531 330.148438 210.144531 C 328.710938 216.332031 326.785156 222.394531 324.804688 228.425781 C 322.964844 234.039062 321.074219 239.605469 319.863281 245.394531 C 318.679688 251.0625 317.976562 256.832031 317.605469 262.609375 C 317.214844 268.769531 317.199219 274.949219 317.398438 281.121094 C 317.425781 281.914062 317.453125 282.710938 317.484375 283.507812 C 317.527344 284.464844 319.023438 284.46875 318.984375 283.507812 " fill-opacity="1" fill-rule="nonzero"/><path fill="#f0dece" d="M 339.125 161.964844 C 337.96875 155.0625 336.960938 148.144531 335.164062 141.359375 C 333.308594 134.355469 330.898438 127.507812 328.285156 120.753906 C 327.714844 119.273438 327.121094 117.78125 326.171875 116.515625 C 322.136719 111.128906 312.59375 113.328125 308.328125 117.179688 C 306.316406 118.992188 304.894531 121.34375 303.832031 123.816406 C 302.199219 127.609375 301.558594 131.449219 300.894531 135.523438 C 299.40625 144.652344 296.941406 153.613281 296.6875 162.910156 C 296.527344 168.671875 297.582031 174.675781 303.785156 176.597656 C 306.203125 177.34375 308.75 177.511719 311.265625 177.542969 C 313.9375 177.578125 316.609375 177.363281 319.242188 176.910156 C 323.191406 176.226562 327.183594 174.980469 330.855469 173.238281 C 333.691406 171.898438 338.132812 170.105469 339.3125 166.921875 C 339.902344 165.332031 339.394531 163.574219 339.125 161.964844 " fill-opacity="1" fill-rule="nonzero"/><path fill="#180c45" d="M 318.875 136.175781 C 316.527344 139.597656 314.144531 142.992188 311.796875 146.414062 C 308.515625 151.195312 305.195312 155.945312 301.695312 160.570312 C 300.378906 162.308594 299.03125 164.027344 297.710938 165.761719 C 300.578125 166.386719 303.554688 166.460938 306.453125 165.984375 C 313.550781 164.820312 319.082031 160.230469 320.320312 152.875 C 320.917969 149.351562 320.855469 145.730469 320.328125 142.203125 C 320.023438 140.15625 319.53125 138.136719 318.875 136.175781 " fill-opacity="1" fill-rule="nonzero"/><path fill="#a85e36" d="M 302.96875 130.300781 C 303.136719 130.046875 303.3125 129.800781 303.480469 129.546875 C 303.929688 128.875 303 128.066406 302.496094 128.730469 C 300.375 131.523438 299.417969 134.523438 297.710938 137.582031 C 292.890625 146.210938 291.46875 153.578125 280.722656 151.703125 C 272.996094 150.355469 263.160156 147.308594 255.257812 144.664062 C 255.035156 144.125 254.8125 143.589844 254.578125 143.058594 C 253.90625 141.527344 253.179688 140.023438 252.394531 138.546875 C 252.023438 137.847656 251.691406 137.015625 251.160156 136.417969 C 250.640625 135.820312 249.753906 135.542969 249.066406 136.050781 C 248.441406 136.515625 248.414062 137.425781 248.394531 138.128906 C 248.375 139 248.46875 139.859375 248.621094 140.714844 C 248.703125 141.160156 248.769531 141.773438 248.867188 142.21875 C 248.761719 142.105469 244.621094 136.90625 244.582031 136.9375 C 241.972656 139.226562 242.828125 144.429688 243.988281 147.824219 C 247.460938 158.003906 253.78125 159.890625 263.824219 164.621094 C 273.738281 169.292969 287.859375 174.867188 298.179688 168.734375 C 305.753906 164.234375 312.144531 154.609375 315.558594 146.828125 C 315.734375 146.421875 304.863281 132.375 302.96875 130.300781 " fill-opacity="1" fill-rule="nonzero"/><path fill="#f0dece" d="M 320.738281 131.558594 C 320.617188 127.84375 318.496094 124.746094 316.304688 121.273438 C 314.402344 119.488281 312.113281 118.207031 309.691406 117.234375 C 309.328125 117.3125 308.964844 117.402344 308.597656 117.511719 C 305.941406 119.683594 303.785156 122.382812 301.855469 125.210938 C 299.695312 128.386719 297.6875 131.675781 295.71875 134.976562 C 295.222656 135.8125 294.726562 136.648438 294.238281 137.492188 C 293.785156 138.273438 291.113281 142.496094 291.179688 143.398438 C 291.246094 144.269531 295.691406 147.46875 297.152344 148.378906 C 298.660156 149.316406 300.226562 150.160156 301.867188 150.847656 C 305.132812 152.21875 309.546875 153.785156 313.097656 153.617188 C 314.675781 153.542969 318.246094 145.195312 318.683594 143.5 C 319.617188 139.886719 320.851562 135.050781 320.738281 131.558594 " fill-opacity="1" fill-rule="nonzero"/><path fill="#180c45" d="M 270.277344 135.613281 C 271.511719 133.554688 273.003906 131.679688 274.726562 130.007812 C 275.421875 129.335938 274.359375 128.277344 273.667969 128.949219 C 271.859375 130.703125 270.28125 132.695312 268.984375 134.855469 C 268.488281 135.683594 269.78125 136.4375 270.277344 135.613281 " fill-opacity="1" fill-rule="nonzero"/><path fill="#180c45" d="M 247.980469 142.996094 C 248.679688 144.789062 249.382812 146.585938 250.082031 148.382812 C 250.226562 148.761719 250.582031 149.023438 251 148.90625 C 251.359375 148.808594 251.671875 148.367188 251.523438 147.984375 C 250.824219 146.1875 250.125 144.394531 249.425781 142.597656 C 249.277344 142.21875 248.921875 141.957031 248.503906 142.074219 C 248.144531 142.171875 247.832031 142.617188 247.980469 142.996094 " fill-opacity="1" fill-rule="nonzero"/><path fill="#180c45" d="M 285.09375 337.121094 C 290.113281 337.703125 295.183594 337.792969 300.222656 337.421875 C 305.289062 337.054688 310.328125 336.238281 315.242188 334.964844 C 317.929688 334.269531 320.582031 333.433594 323.183594 332.457031 C 323.5625 332.316406 323.820312 331.949219 323.703125 331.535156 C 323.605469 331.171875 323.164062 330.871094 322.785156 331.011719 C 318.152344 332.75 313.359375 334.039062 308.492188 334.898438 C 303.574219 335.765625 298.578125 336.183594 293.589844 336.144531 C 290.75 336.121094 287.914062 335.949219 285.09375 335.621094 C 284.695312 335.574219 284.347656 336 284.347656 336.371094 C 284.347656 336.8125 284.691406 337.074219 285.09375 337.121094 " fill-opacity="1" fill-rule="nonzero"/><path fill="#180c45" d="M 340.640625 337.539062 C 344.601562 335.414062 348.324219 332.832031 351.898438 330.117188 C 355.847656 327.121094 359.652344 323.914062 363.175781 320.425781 C 364.875 318.746094 366.507812 316.996094 367.988281 315.121094 C 368.238281 314.800781 368.300781 314.371094 367.988281 314.058594 C 367.730469 313.800781 367.183594 313.742188 366.929688 314.058594 C 364.164062 317.570312 360.894531 320.683594 357.535156 323.617188 C 353.867188 326.820312 350.007812 329.816406 345.964844 332.535156 C 343.996094 333.863281 341.980469 335.125 339.886719 336.25 C 339.039062 336.703125 339.792969 337.996094 340.640625 337.539062 " fill-opacity="1" fill-rule="nonzero"/><path fill="#180c45" d="M 307.242188 120.496094 C 310.039062 117.378906 313.945312 115.273438 318.128906 114.835938 C 318.53125 114.796875 318.878906 114.523438 318.878906 114.089844 C 318.878906 113.714844 318.535156 113.296875 318.128906 113.339844 C 313.550781 113.816406 309.261719 116.011719 306.183594 119.4375 C 305.542969 120.152344 306.597656 121.214844 307.242188 120.496094 " fill-opacity="1" fill-rule="nonzero"/></svg>